<svg xmlns="http://www.w3.org/2000/svg" width="1200" height="260" viewBox="0 0 1200 260">
<style>text{font-family:Arial,sans-serif;fill:#222}.title{font-size:16px;font-weight:bold}.sub{font-size:11px;fill:#555}.meta{font-size:11px}.tick{font-size:10px;fill:#555}</style>
<text x="110" y="20" class="title">CM058173.1_7414589-7417332f</text>
<text x="110" y="37" class="sub">CM058173.1 · 7,414,589–7,417,332 · + strand</text>
<line x1="119.63" y1="52" x2="119.63" y2="250" stroke="#e8e8e8"/>
<line x1="150.70" y1="52" x2="150.70" y2="250" stroke="#e8e8e8"/>
<line x1="181.77" y1="52" x2="181.77" y2="250" stroke="#e8e8e8"/>
<line x1="212.84" y1="52" x2="212.84" y2="250" stroke="#e8e8e8"/>
<line x1="243.91" y1="52" x2="243.91" y2="250" stroke="#cccccc"/>
<text x="243.91" y="47" text-anchor="middle" class="tick">7,415,000</text>
<line x1="274.98" y1="52" x2="274.98" y2="250" stroke="#e8e8e8"/>
<line x1="306.05" y1="52" x2="306.05" y2="250" stroke="#e8e8e8"/>
<line x1="337.12" y1="52" x2="337.12" y2="250" stroke="#e8e8e8"/>
<line x1="368.20" y1="52" x2="368.20" y2="250" stroke="#e8e8e8"/>
<line x1="399.27" y1="52" x2="399.27" y2="250" stroke="#cccccc"/>
<text x="399.27" y="47" text-anchor="middle" class="tick">7,415,500</text>
<line x1="430.34" y1="52" x2="430.34" y2="250" stroke="#e8e8e8"/>
<line x1="461.41" y1="52" x2="461.41" y2="250" stroke="#e8e8e8"/>
<line x1="492.48" y1="52" x2="492.48" y2="250" stroke="#e8e8e8"/>
<line x1="523.55" y1="52" x2="523.55" y2="250" stroke="#e8e8e8"/>
<line x1="554.62" y1="52" x2="554.62" y2="250" stroke="#cccccc"/>
<text x="554.62" y="47" text-anchor="middle" class="tick">7,416,000</text>
<line x1="585.69" y1="52" x2="585.69" y2="250" stroke="#e8e8e8"/>
<line x1="616.76" y1="52" x2="616.76" y2="250" stroke="#e8e8e8"/>
<line x1="647.83" y1="52" x2="647.83" y2="250" stroke="#e8e8e8"/>
<line x1="678.90" y1="52" x2="678.90" y2="250" stroke="#e8e8e8"/>
<line x1="709.97" y1="52" x2="709.97" y2="250" stroke="#cccccc"/>
<text x="709.97" y="47" text-anchor="middle" class="tick">7,416,500</text>
<line x1="741.04" y1="52" x2="741.04" y2="250" stroke="#e8e8e8"/>
<line x1="772.11" y1="52" x2="772.11" y2="250" stroke="#e8e8e8"/>
<line x1="803.18" y1="52" x2="803.18" y2="250" stroke="#e8e8e8"/>
<line x1="834.25" y1="52" x2="834.25" y2="250" stroke="#e8e8e8"/>
<line x1="865.32" y1="52" x2="865.32" y2="250" stroke="#cccccc"/>
<text x="865.32" y="47" text-anchor="middle" class="tick">7,417,000</text>
<line x1="896.39" y1="52" x2="896.39" y2="250" stroke="#e8e8e8"/>
<line x1="927.46" y1="52" x2="927.46" y2="250" stroke="#e8e8e8"/>
<line x1="958.53" y1="52" x2="958.53" y2="250" stroke="#e8e8e8"/>
<text x="102" y="100" text-anchor="end" class="meta">gene</text>
<text x="983" y="100" class="meta">2,744 bp</text>
<polygon points="116.21,90.00 954.79,90.00 968.79,96.00 954.79,102.00 116.21,102.00" fill="#303030" stroke="#303030" stroke-width="1"/>
<text x="102" y="153" text-anchor="end" class="meta">IRN_013051</text>
<text x="983" y="153" class="meta">1,491 bp · 497 aa · reject · no signal</text>
<line x1="162.20" y1="148.00" x2="395.23" y2="148.00" stroke="#f8c491" stroke-width="1"/>
<line x1="415.42" y1="148.00" x2="433.44" y2="148.00" stroke="#f8c491" stroke-width="1"/>
<line x1="466.69" y1="148.00" x2="485.95" y2="148.00" stroke="#f8c491" stroke-width="1"/>
<line x1="513.29" y1="148.00" x2="531.94" y2="148.00" stroke="#f8c491" stroke-width="1"/>
<line x1="581.34" y1="148.00" x2="599.67" y2="148.00" stroke="#f8c491" stroke-width="1"/>
<line x1="646.59" y1="148.00" x2="668.96" y2="148.00" stroke="#f8c491" stroke-width="1"/>
<line x1="736.69" y1="148.00" x2="756.58" y2="148.00" stroke="#f8c491" stroke-width="1"/>
<line x1="794.79" y1="148.00" x2="814.68" y2="148.00" stroke="#f8c491" stroke-width="1"/>
<line x1="860.97" y1="148.00" x2="880.86" y2="148.00" stroke="#f8c491" stroke-width="1"/>
<polygon points="116.21,138.00 148.20,138.00 162.20,148.00 148.20,158.00 116.21,158.00" fill="#f4bcba" stroke="#f8c491" stroke-width="1"/>
<polygon points="395.23,138.00 408.69,138.00 415.42,148.00 408.69,158.00 395.23,158.00" fill="#f4bcba" stroke="#f8c491" stroke-width="1"/>
<polygon points="433.44,138.00 455.61,138.00 466.69,148.00 455.61,158.00 433.44,158.00" fill="#f4bcba" stroke="#f8c491" stroke-width="1"/>
<polygon points="485.95,138.00 504.18,138.00 513.29,148.00 504.18,158.00 485.95,158.00" fill="#f4bcba" stroke="#f8c491" stroke-width="1"/>
<polygon points="531.94,138.00 567.34,138.00 581.34,148.00 567.34,158.00 531.94,158.00" fill="#f4bcba" stroke="#f8c491" stroke-width="1"/>
<polygon points="599.67,138.00 632.59,138.00 646.59,148.00 632.59,158.00 599.67,158.00" fill="#f4bcba" stroke="#f8c491" stroke-width="1"/>
<polygon points="668.96,138.00 722.69,138.00 736.69,148.00 722.69,158.00 668.96,158.00" fill="#f4bcba" stroke="#f8c491" stroke-width="1"/>
<polygon points="756.58,138.00 782.05,138.00 794.79,148.00 782.05,158.00 756.58,158.00" fill="#f4bcba" stroke="#f8c491" stroke-width="1"/>
<polygon points="814.68,138.00 846.97,138.00 860.97,148.00 846.97,158.00 814.68,158.00" fill="#f4bcba" stroke="#f8c491" stroke-width="1"/>
<polygon points="880.86,138.00 954.79,138.00 968.79,148.00 954.79,158.00 880.86,158.00" fill="#f4bcba" stroke="#f8c491" stroke-width="1"/>
<text x="102" y="200" text-anchor="end" class="meta">IRN_013052 CURRENT</text>
<text x="983" y="200" class="meta">1,368 bp · 456 aa · accept · no signal</text>
<line x1="415.42" y1="195.00" x2="433.44" y2="195.00" stroke="#f28e2b" stroke-width="2.4"/>
<line x1="466.69" y1="195.00" x2="485.95" y2="195.00" stroke="#f28e2b" stroke-width="2.4"/>
<line x1="513.29" y1="195.00" x2="531.94" y2="195.00" stroke="#f28e2b" stroke-width="2.4"/>
<line x1="581.34" y1="195.00" x2="599.67" y2="195.00" stroke="#f28e2b" stroke-width="2.4"/>
<line x1="646.59" y1="195.00" x2="668.96" y2="195.00" stroke="#f28e2b" stroke-width="2.4"/>
<line x1="736.69" y1="195.00" x2="756.58" y2="195.00" stroke="#f28e2b" stroke-width="2.4"/>
<line x1="794.79" y1="195.00" x2="814.68" y2="195.00" stroke="#f28e2b" stroke-width="2.4"/>
<line x1="860.97" y1="195.00" x2="880.86" y2="195.00" stroke="#f28e2b" stroke-width="2.4"/>
<polygon points="387.46,185.00 406.10,185.00 415.42,195.00 406.10,205.00 387.46,205.00" fill="#31a354" stroke="#f28e2b" stroke-width="2.4"/>
<polygon points="433.44,185.00 455.61,185.00 466.69,195.00 455.61,205.00 433.44,205.00" fill="#31a354" stroke="#f28e2b" stroke-width="2.4"/>
<polygon points="485.95,185.00 504.18,185.00 513.29,195.00 504.18,205.00 485.95,205.00" fill="#31a354" stroke="#f28e2b" stroke-width="2.4"/>
<polygon points="531.94,185.00 567.34,185.00 581.34,195.00 567.34,205.00 531.94,205.00" fill="#31a354" stroke="#f28e2b" stroke-width="2.4"/>
<polygon points="599.67,185.00 632.59,185.00 646.59,195.00 632.59,205.00 599.67,205.00" fill="#31a354" stroke="#f28e2b" stroke-width="2.4"/>
<polygon points="668.96,185.00 722.69,185.00 736.69,195.00 722.69,205.00 668.96,205.00" fill="#31a354" stroke="#f28e2b" stroke-width="2.4"/>
<polygon points="756.58,185.00 782.05,185.00 794.79,195.00 782.05,205.00 756.58,205.00" fill="#31a354" stroke="#f28e2b" stroke-width="2.4"/>
<polygon points="814.68,185.00 846.97,185.00 860.97,195.00 846.97,205.00 814.68,205.00" fill="#31a354" stroke="#f28e2b" stroke-width="2.4"/>
<polygon points="880.86,185.00 954.79,185.00 968.79,195.00 954.79,205.00 880.86,205.00" fill="#31a354" stroke="#f28e2b" stroke-width="2.4"/>
<text x="110" y="252" class="sub">Orange CDS outlines indicate has_signal=FALSE.</text>
</svg>
