<svg xmlns="http://www.w3.org/2000/svg" width="1200" height="213" viewBox="0 0 1200 213">
<style>text{font-family:Arial,sans-serif;fill:#222}.title{font-size:16px;font-weight:bold}.sub{font-size:11px;fill:#555}.meta{font-size:11px}.tick{font-size:10px;fill:#555}</style>
<text x="110" y="20" class="title">CM058173.1_7415462-7417332f</text>
<text x="110" y="37" class="sub">CM058173.1 · 7,415,462–7,417,332 · + strand</text>
<line x1="136.25" y1="52" x2="136.25" y2="203" stroke="#cccccc"/>
<text x="136.25" y="47" text-anchor="middle" class="tick">7,415,500</text>
<line x1="181.52" y1="52" x2="181.52" y2="203" stroke="#e8e8e8"/>
<line x1="226.78" y1="52" x2="226.78" y2="203" stroke="#e8e8e8"/>
<line x1="272.05" y1="52" x2="272.05" y2="203" stroke="#e8e8e8"/>
<line x1="317.31" y1="52" x2="317.31" y2="203" stroke="#e8e8e8"/>
<line x1="362.57" y1="52" x2="362.57" y2="203" stroke="#cccccc"/>
<text x="362.57" y="47" text-anchor="middle" class="tick">7,416,000</text>
<line x1="407.84" y1="52" x2="407.84" y2="203" stroke="#e8e8e8"/>
<line x1="453.10" y1="52" x2="453.10" y2="203" stroke="#e8e8e8"/>
<line x1="498.37" y1="52" x2="498.37" y2="203" stroke="#e8e8e8"/>
<line x1="543.63" y1="52" x2="543.63" y2="203" stroke="#e8e8e8"/>
<line x1="588.90" y1="52" x2="588.90" y2="203" stroke="#cccccc"/>
<text x="588.90" y="47" text-anchor="middle" class="tick">7,416,500</text>
<line x1="634.16" y1="52" x2="634.16" y2="203" stroke="#e8e8e8"/>
<line x1="679.42" y1="52" x2="679.42" y2="203" stroke="#e8e8e8"/>
<line x1="724.69" y1="52" x2="724.69" y2="203" stroke="#e8e8e8"/>
<line x1="769.95" y1="52" x2="769.95" y2="203" stroke="#e8e8e8"/>
<line x1="815.22" y1="52" x2="815.22" y2="203" stroke="#cccccc"/>
<text x="815.22" y="47" text-anchor="middle" class="tick">7,417,000</text>
<line x1="860.48" y1="52" x2="860.48" y2="203" stroke="#e8e8e8"/>
<line x1="905.75" y1="52" x2="905.75" y2="203" stroke="#e8e8e8"/>
<line x1="951.01" y1="52" x2="951.01" y2="203" stroke="#e8e8e8"/>
<text x="102" y="100" text-anchor="end" class="meta">gene</text>
<text x="983" y="100" class="meta">1,871 bp</text>
<polygon points="119.05,90.00 951.95,90.00 965.95,96.00 951.95,102.00 119.05,102.00" fill="#303030" stroke="#303030" stroke-width="1"/>
<text x="102" y="153" text-anchor="end" class="meta">IRN_013052 CURRENT</text>
<text x="983" y="153" class="meta">1,368 bp · 456 aa · accept · no signal</text>
<line x1="159.79" y1="148.00" x2="186.04" y2="148.00" stroke="#f28e2b" stroke-width="2.4"/>
<line x1="234.48" y1="148.00" x2="262.54" y2="148.00" stroke="#f28e2b" stroke-width="2.4"/>
<line x1="302.37" y1="148.00" x2="329.53" y2="148.00" stroke="#f28e2b" stroke-width="2.4"/>
<line x1="401.50" y1="148.00" x2="428.21" y2="148.00" stroke="#f28e2b" stroke-width="2.4"/>
<line x1="496.56" y1="148.00" x2="529.15" y2="148.00" stroke="#f28e2b" stroke-width="2.4"/>
<line x1="627.82" y1="148.00" x2="656.79" y2="148.00" stroke="#f28e2b" stroke-width="2.4"/>
<line x1="712.47" y1="148.00" x2="741.44" y2="148.00" stroke="#f28e2b" stroke-width="2.4"/>
<line x1="808.88" y1="148.00" x2="837.85" y2="148.00" stroke="#f28e2b" stroke-width="2.4"/>
<polygon points="119.05,138.00 146.21,138.00 159.79,148.00 146.21,158.00 119.05,158.00" fill="#31a354" stroke="#f28e2b" stroke-width="2.4"/>
<polygon points="186.04,138.00 220.48,138.00 234.48,148.00 220.48,158.00 186.04,158.00" fill="#31a354" stroke="#f28e2b" stroke-width="2.4"/>
<polygon points="262.54,138.00 289.10,138.00 302.37,148.00 289.10,158.00 262.54,158.00" fill="#31a354" stroke="#f28e2b" stroke-width="2.4"/>
<polygon points="329.53,138.00 387.50,138.00 401.50,148.00 387.50,158.00 329.53,158.00" fill="#31a354" stroke="#f28e2b" stroke-width="2.4"/>
<polygon points="428.21,138.00 482.56,138.00 496.56,148.00 482.56,158.00 428.21,158.00" fill="#31a354" stroke="#f28e2b" stroke-width="2.4"/>
<polygon points="529.15,138.00 613.82,138.00 627.82,148.00 613.82,158.00 529.15,158.00" fill="#31a354" stroke="#f28e2b" stroke-width="2.4"/>
<polygon points="656.79,138.00 698.47,138.00 712.47,148.00 698.47,158.00 656.79,158.00" fill="#31a354" stroke="#f28e2b" stroke-width="2.4"/>
<polygon points="741.44,138.00 794.88,138.00 808.88,148.00 794.88,158.00 741.44,158.00" fill="#31a354" stroke="#f28e2b" stroke-width="2.4"/>
<polygon points="837.85,138.00 951.95,138.00 965.95,148.00 951.95,158.00 837.85,158.00" fill="#31a354" stroke="#f28e2b" stroke-width="2.4"/>
<text x="110" y="205" class="sub">Orange CDS outlines indicate has_signal=FALSE.</text>
</svg>
