<svg xmlns="http://www.w3.org/2000/svg" width="1200" height="354" viewBox="0 0 1200 354">
<style>text{font-family:Arial,sans-serif;fill:#222}.title{font-size:16px;font-weight:bold}.sub{font-size:11px;fill:#555}.meta{font-size:11px}.tick{font-size:10px;fill:#555}</style>
<text x="110" y="20" class="title">CM058171.1_13469967-13472145r</text>
<text x="110" y="37" class="sub">CM058171.1 · 13,469,967–13,472,145 · - strand</text>
<line x1="130.66" y1="52" x2="130.66" y2="344" stroke="#cccccc"/>
<text x="130.66" y="47" text-anchor="middle" class="tick">13,470,000</text>
<line x1="169.64" y1="52" x2="169.64" y2="344" stroke="#e8e8e8"/>
<line x1="208.62" y1="52" x2="208.62" y2="344" stroke="#e8e8e8"/>
<line x1="247.60" y1="52" x2="247.60" y2="344" stroke="#e8e8e8"/>
<line x1="286.59" y1="52" x2="286.59" y2="344" stroke="#e8e8e8"/>
<line x1="325.57" y1="52" x2="325.57" y2="344" stroke="#cccccc"/>
<text x="325.57" y="47" text-anchor="middle" class="tick">13,470,500</text>
<line x1="364.55" y1="52" x2="364.55" y2="344" stroke="#e8e8e8"/>
<line x1="403.53" y1="52" x2="403.53" y2="344" stroke="#e8e8e8"/>
<line x1="442.51" y1="52" x2="442.51" y2="344" stroke="#e8e8e8"/>
<line x1="481.49" y1="52" x2="481.49" y2="344" stroke="#e8e8e8"/>
<line x1="520.48" y1="52" x2="520.48" y2="344" stroke="#cccccc"/>
<text x="520.48" y="47" text-anchor="middle" class="tick">13,471,000</text>
<line x1="559.46" y1="52" x2="559.46" y2="344" stroke="#e8e8e8"/>
<line x1="598.44" y1="52" x2="598.44" y2="344" stroke="#e8e8e8"/>
<line x1="637.42" y1="52" x2="637.42" y2="344" stroke="#e8e8e8"/>
<line x1="676.40" y1="52" x2="676.40" y2="344" stroke="#e8e8e8"/>
<line x1="715.38" y1="52" x2="715.38" y2="344" stroke="#cccccc"/>
<text x="715.38" y="47" text-anchor="middle" class="tick">13,471,500</text>
<line x1="754.36" y1="52" x2="754.36" y2="344" stroke="#e8e8e8"/>
<line x1="793.35" y1="52" x2="793.35" y2="344" stroke="#e8e8e8"/>
<line x1="832.33" y1="52" x2="832.33" y2="344" stroke="#e8e8e8"/>
<line x1="871.31" y1="52" x2="871.31" y2="344" stroke="#e8e8e8"/>
<line x1="910.29" y1="52" x2="910.29" y2="344" stroke="#cccccc"/>
<text x="910.29" y="47" text-anchor="middle" class="tick">13,472,000</text>
<line x1="949.27" y1="52" x2="949.27" y2="344" stroke="#e8e8e8"/>
<text x="102" y="100" text-anchor="end" class="meta">gene</text>
<text x="983" y="100" class="meta">2,179 bp</text>
<polygon points="117.80,96.00 131.80,90.00 967.20,90.00 967.20,102.00 131.80,102.00" fill="#303030" stroke="#303030" stroke-width="1"/>
<text x="102" y="153" text-anchor="end" class="meta">IRN_008983</text>
<text x="983" y="153" class="meta">1,293 bp · 431 aa · reject · no signal</text>
<line x1="208.23" y1="148.00" x2="238.64" y2="148.00" stroke="#f8c491" stroke-width="1"/>
<line x1="296.72" y1="148.00" x2="331.42" y2="148.00" stroke="#f8c491" stroke-width="1"/>
<line x1="381.70" y1="148.00" x2="404.70" y2="148.00" stroke="#f8c491" stroke-width="1"/>
<line x1="489.68" y1="148.00" x2="546.20" y2="148.00" stroke="#f8c491" stroke-width="1"/>
<line x1="603.90" y1="148.00" x2="643.66" y2="148.00" stroke="#f8c491" stroke-width="1"/>
<line x1="705.64" y1="148.00" x2="737.21" y2="148.00" stroke="#f8c491" stroke-width="1"/>
<line x1="771.52" y1="148.00" x2="798.41" y2="148.00" stroke="#f8c491" stroke-width="1"/>
<line x1="840.12" y1="148.00" x2="915.75" y2="148.00" stroke="#f8c491" stroke-width="1"/>
<polygon points="117.80,148.00 131.80,138.00 208.23,138.00 208.23,158.00 131.80,158.00" fill="#f4bcba" stroke="#f8c491" stroke-width="1"/>
<polygon points="238.64,148.00 252.64,138.00 296.72,138.00 296.72,158.00 252.64,158.00" fill="#f4bcba" stroke="#f8c491" stroke-width="1"/>
<polygon points="331.42,148.00 345.42,138.00 381.70,138.00 381.70,158.00 345.42,158.00" fill="#f4bcba" stroke="#f8c491" stroke-width="1"/>
<polygon points="404.70,148.00 418.70,138.00 489.68,138.00 489.68,158.00 418.70,158.00" fill="#f4bcba" stroke="#f8c491" stroke-width="1"/>
<polygon points="546.20,148.00 560.20,138.00 603.90,138.00 603.90,158.00 560.20,158.00" fill="#f4bcba" stroke="#f8c491" stroke-width="1"/>
<polygon points="643.66,148.00 657.66,138.00 705.64,138.00 705.64,158.00 657.66,158.00" fill="#f4bcba" stroke="#f8c491" stroke-width="1"/>
<polygon points="737.21,148.00 748.65,138.00 771.52,138.00 771.52,158.00 748.65,158.00" fill="#f4bcba" stroke="#f8c491" stroke-width="1"/>
<polygon points="798.41,148.00 812.32,138.00 840.12,138.00 840.12,158.00 812.32,158.00" fill="#f4bcba" stroke="#f8c491" stroke-width="1"/>
<polygon points="915.75,148.00 923.93,138.00 940.31,138.00 940.31,158.00 923.93,158.00" fill="#f4bcba" stroke="#f8c491" stroke-width="1"/>
<text x="102" y="200" text-anchor="end" class="meta">IRN_018675</text>
<text x="983" y="200" class="meta">1,308 bp · 436 aa · reject · no signal</text>
<line x1="208.23" y1="195.00" x2="238.64" y2="195.00" stroke="#f8c491" stroke-width="1"/>
<line x1="296.72" y1="195.00" x2="331.42" y2="195.00" stroke="#f8c491" stroke-width="1"/>
<line x1="387.55" y1="195.00" x2="404.70" y2="195.00" stroke="#f8c491" stroke-width="1"/>
<line x1="489.68" y1="195.00" x2="546.20" y2="195.00" stroke="#f8c491" stroke-width="1"/>
<line x1="603.90" y1="195.00" x2="643.66" y2="195.00" stroke="#f8c491" stroke-width="1"/>
<line x1="705.64" y1="195.00" x2="737.21" y2="195.00" stroke="#f8c491" stroke-width="1"/>
<line x1="771.52" y1="195.00" x2="798.41" y2="195.00" stroke="#f8c491" stroke-width="1"/>
<line x1="840.12" y1="195.00" x2="915.75" y2="195.00" stroke="#f8c491" stroke-width="1"/>
<polygon points="117.80,195.00 131.80,185.00 208.23,185.00 208.23,205.00 131.80,205.00" fill="#f4bcba" stroke="#f8c491" stroke-width="1"/>
<polygon points="238.64,195.00 252.64,185.00 296.72,185.00 296.72,205.00 252.64,205.00" fill="#f4bcba" stroke="#f8c491" stroke-width="1"/>
<polygon points="331.42,195.00 345.42,185.00 387.55,185.00 387.55,205.00 345.42,205.00" fill="#f4bcba" stroke="#f8c491" stroke-width="1"/>
<polygon points="404.70,195.00 418.70,185.00 489.68,185.00 489.68,205.00 418.70,205.00" fill="#f4bcba" stroke="#f8c491" stroke-width="1"/>
<polygon points="546.20,195.00 560.20,185.00 603.90,185.00 603.90,205.00 560.20,205.00" fill="#f4bcba" stroke="#f8c491" stroke-width="1"/>
<polygon points="643.66,195.00 657.66,185.00 705.64,185.00 705.64,205.00 657.66,205.00" fill="#f4bcba" stroke="#f8c491" stroke-width="1"/>
<polygon points="737.21,195.00 748.65,185.00 771.52,185.00 771.52,205.00 748.65,205.00" fill="#f4bcba" stroke="#f8c491" stroke-width="1"/>
<polygon points="798.41,195.00 812.32,185.00 840.12,185.00 840.12,205.00 812.32,205.00" fill="#f4bcba" stroke="#f8c491" stroke-width="1"/>
<polygon points="915.75,195.00 923.93,185.00 940.31,185.00 940.31,205.00 923.93,205.00" fill="#f4bcba" stroke="#f8c491" stroke-width="1"/>
<text x="102" y="247" text-anchor="end" class="meta">IRN_029258</text>
<text x="983" y="247" class="meta">1,278 bp · 426 aa · reject · no signal</text>
<line x1="208.23" y1="242.00" x2="238.64" y2="242.00" stroke="#f8c491" stroke-width="1"/>
<line x1="296.72" y1="242.00" x2="331.42" y2="242.00" stroke="#f8c491" stroke-width="1"/>
<line x1="381.70" y1="242.00" x2="404.70" y2="242.00" stroke="#f8c491" stroke-width="1"/>
<line x1="489.68" y1="242.00" x2="546.20" y2="242.00" stroke="#f8c491" stroke-width="1"/>
<line x1="603.90" y1="242.00" x2="649.50" y2="242.00" stroke="#f8c491" stroke-width="1"/>
<line x1="705.64" y1="242.00" x2="737.21" y2="242.00" stroke="#f8c491" stroke-width="1"/>
<line x1="771.52" y1="242.00" x2="798.41" y2="242.00" stroke="#f8c491" stroke-width="1"/>
<line x1="840.12" y1="242.00" x2="915.75" y2="242.00" stroke="#f8c491" stroke-width="1"/>
<polygon points="117.80,242.00 131.80,232.00 208.23,232.00 208.23,252.00 131.80,252.00" fill="#f4bcba" stroke="#f8c491" stroke-width="1"/>
<polygon points="238.64,242.00 252.64,232.00 296.72,232.00 296.72,252.00 252.64,252.00" fill="#f4bcba" stroke="#f8c491" stroke-width="1"/>
<polygon points="331.42,242.00 345.42,232.00 381.70,232.00 381.70,252.00 345.42,252.00" fill="#f4bcba" stroke="#f8c491" stroke-width="1"/>
<polygon points="404.70,242.00 418.70,232.00 489.68,232.00 489.68,252.00 418.70,252.00" fill="#f4bcba" stroke="#f8c491" stroke-width="1"/>
<polygon points="546.20,242.00 560.20,232.00 603.90,232.00 603.90,252.00 560.20,252.00" fill="#f4bcba" stroke="#f8c491" stroke-width="1"/>
<polygon points="649.50,242.00 663.50,232.00 705.64,232.00 705.64,252.00 663.50,252.00" fill="#f4bcba" stroke="#f8c491" stroke-width="1"/>
<polygon points="737.21,242.00 748.65,232.00 771.52,232.00 771.52,252.00 748.65,252.00" fill="#f4bcba" stroke="#f8c491" stroke-width="1"/>
<polygon points="798.41,242.00 812.32,232.00 840.12,232.00 840.12,252.00 812.32,252.00" fill="#f4bcba" stroke="#f8c491" stroke-width="1"/>
<polygon points="915.75,242.00 923.93,232.00 940.31,232.00 940.31,252.00 923.93,252.00" fill="#f4bcba" stroke="#f8c491" stroke-width="1"/>
<text x="102" y="294" text-anchor="end" class="meta">IRN_051521 CURRENT</text>
<text x="983" y="294" class="meta">1,362 bp · 454 aa · accept · signal</text>
<line x1="208.23" y1="289.00" x2="238.64" y2="289.00" stroke="#176b37" stroke-width="2.4"/>
<line x1="296.72" y1="289.00" x2="331.42" y2="289.00" stroke="#176b37" stroke-width="2.4"/>
<line x1="381.70" y1="289.00" x2="404.70" y2="289.00" stroke="#176b37" stroke-width="2.4"/>
<line x1="489.68" y1="289.00" x2="546.20" y2="289.00" stroke="#176b37" stroke-width="2.4"/>
<line x1="603.90" y1="289.00" x2="643.66" y2="289.00" stroke="#176b37" stroke-width="2.4"/>
<line x1="705.64" y1="289.00" x2="737.21" y2="289.00" stroke="#176b37" stroke-width="2.4"/>
<line x1="771.52" y1="289.00" x2="798.41" y2="289.00" stroke="#176b37" stroke-width="2.4"/>
<line x1="840.12" y1="289.00" x2="915.75" y2="289.00" stroke="#176b37" stroke-width="2.4"/>
<polygon points="117.80,289.00 131.80,279.00 208.23,279.00 208.23,299.00 131.80,299.00" fill="#31a354" stroke="#176b37" stroke-width="2.4"/>
<polygon points="238.64,289.00 252.64,279.00 296.72,279.00 296.72,299.00 252.64,299.00" fill="#31a354" stroke="#176b37" stroke-width="2.4"/>
<polygon points="331.42,289.00 345.42,279.00 381.70,279.00 381.70,299.00 345.42,299.00" fill="#31a354" stroke="#176b37" stroke-width="2.4"/>
<polygon points="404.70,289.00 418.70,279.00 489.68,279.00 489.68,299.00 418.70,299.00" fill="#31a354" stroke="#176b37" stroke-width="2.4"/>
<polygon points="546.20,289.00 560.20,279.00 603.90,279.00 603.90,299.00 560.20,299.00" fill="#31a354" stroke="#176b37" stroke-width="2.4"/>
<polygon points="643.66,289.00 657.66,279.00 705.64,279.00 705.64,299.00 657.66,299.00" fill="#31a354" stroke="#176b37" stroke-width="2.4"/>
<polygon points="737.21,289.00 748.65,279.00 771.52,279.00 771.52,299.00 748.65,299.00" fill="#31a354" stroke="#176b37" stroke-width="2.4"/>
<polygon points="798.41,289.00 812.32,279.00 840.12,279.00 840.12,299.00 812.32,299.00" fill="#31a354" stroke="#176b37" stroke-width="2.4"/>
<polygon points="915.75,289.00 929.75,279.00 967.20,279.00 967.20,299.00 929.75,299.00" fill="#31a354" stroke="#176b37" stroke-width="2.4"/>
<text x="110" y="346" class="sub">Orange CDS outlines indicate has_signal=FALSE.</text>
</svg>
