<svg xmlns="http://www.w3.org/2000/svg" width="1200" height="401" viewBox="0 0 1200 401">
<style>text{font-family:Arial,sans-serif;fill:#222}.title{font-size:16px;font-weight:bold}.sub{font-size:11px;fill:#555}.meta{font-size:11px}.tick{font-size:10px;fill:#555}</style>
<text x="110" y="20" class="title">CM058175.1_1155735-1158209f</text>
<text x="110" y="37" class="sub">CM058175.1 · 1,155,735–1,158,209 · + strand</text>
<line x1="139.23" y1="52" x2="139.23" y2="391" stroke="#e8e8e8"/>
<line x1="173.63" y1="52" x2="173.63" y2="391" stroke="#e8e8e8"/>
<line x1="208.02" y1="52" x2="208.02" y2="391" stroke="#cccccc"/>
<text x="208.02" y="47" text-anchor="middle" class="tick">1,156,000</text>
<line x1="242.42" y1="52" x2="242.42" y2="391" stroke="#e8e8e8"/>
<line x1="276.81" y1="52" x2="276.81" y2="391" stroke="#e8e8e8"/>
<line x1="311.20" y1="52" x2="311.20" y2="391" stroke="#e8e8e8"/>
<line x1="345.60" y1="52" x2="345.60" y2="391" stroke="#e8e8e8"/>
<line x1="379.99" y1="52" x2="379.99" y2="391" stroke="#cccccc"/>
<text x="379.99" y="47" text-anchor="middle" class="tick">1,156,500</text>
<line x1="414.38" y1="52" x2="414.38" y2="391" stroke="#e8e8e8"/>
<line x1="448.78" y1="52" x2="448.78" y2="391" stroke="#e8e8e8"/>
<line x1="483.17" y1="52" x2="483.17" y2="391" stroke="#e8e8e8"/>
<line x1="517.56" y1="52" x2="517.56" y2="391" stroke="#e8e8e8"/>
<line x1="551.96" y1="52" x2="551.96" y2="391" stroke="#cccccc"/>
<text x="551.96" y="47" text-anchor="middle" class="tick">1,157,000</text>
<line x1="586.35" y1="52" x2="586.35" y2="391" stroke="#e8e8e8"/>
<line x1="620.75" y1="52" x2="620.75" y2="391" stroke="#e8e8e8"/>
<line x1="655.14" y1="52" x2="655.14" y2="391" stroke="#e8e8e8"/>
<line x1="689.53" y1="52" x2="689.53" y2="391" stroke="#e8e8e8"/>
<line x1="723.93" y1="52" x2="723.93" y2="391" stroke="#cccccc"/>
<text x="723.93" y="47" text-anchor="middle" class="tick">1,157,500</text>
<line x1="758.32" y1="52" x2="758.32" y2="391" stroke="#e8e8e8"/>
<line x1="792.71" y1="52" x2="792.71" y2="391" stroke="#e8e8e8"/>
<line x1="827.11" y1="52" x2="827.11" y2="391" stroke="#e8e8e8"/>
<line x1="861.50" y1="52" x2="861.50" y2="391" stroke="#e8e8e8"/>
<line x1="895.89" y1="52" x2="895.89" y2="391" stroke="#cccccc"/>
<text x="895.89" y="47" text-anchor="middle" class="tick">1,158,000</text>
<line x1="930.29" y1="52" x2="930.29" y2="391" stroke="#e8e8e8"/>
<line x1="964.68" y1="52" x2="964.68" y2="391" stroke="#e8e8e8"/>
<text x="102" y="100" text-anchor="end" class="meta">gene</text>
<text x="983" y="100" class="meta">2,475 bp</text>
<polygon points="116.88,90.00 954.12,90.00 968.12,96.00 954.12,102.00 116.88,102.00" fill="#303030" stroke="#303030" stroke-width="1"/>
<text x="102" y="153" text-anchor="end" class="meta">IRN_016461</text>
<text x="983" y="153" class="meta">1,449 bp · 483 aa · accept · signal</text>
<line x1="136.14" y1="148.00" x2="179.13" y2="148.00" stroke="#86b297" stroke-width="1"/>
<line x1="232.10" y1="148.00" x2="272.34" y2="148.00" stroke="#86b297" stroke-width="1"/>
<line x1="309.14" y1="148.00" x2="337.69" y2="148.00" stroke="#86b297" stroke-width="1"/>
<line x1="368.98" y1="148.00" x2="402.35" y2="148.00" stroke="#86b297" stroke-width="1"/>
<line x1="458.06" y1="148.00" x2="496.58" y2="148.00" stroke="#86b297" stroke-width="1"/>
<line x1="550.58" y1="148.00" x2="596.67" y2="148.00" stroke="#86b297" stroke-width="1"/>
<line x1="672.68" y1="148.00" x2="704.32" y2="148.00" stroke="#86b297" stroke-width="1"/>
<line x1="748.69" y1="148.00" x2="807.50" y2="148.00" stroke="#86b297" stroke-width="1"/>
<line x1="858.75" y1="148.00" x2="891.42" y2="148.00" stroke="#86b297" stroke-width="1"/>
<polygon points="116.88,138.00 129.72,138.00 136.14,148.00 129.72,158.00 116.88,158.00" fill="#bde2c8" stroke="#86b297" stroke-width="1"/>
<polygon points="179.13,138.00 218.10,138.00 232.10,148.00 218.10,158.00 179.13,158.00" fill="#bde2c8" stroke="#86b297" stroke-width="1"/>
<polygon points="272.34,138.00 296.87,138.00 309.14,148.00 296.87,158.00 272.34,158.00" fill="#bde2c8" stroke="#86b297" stroke-width="1"/>
<polygon points="337.69,138.00 358.55,138.00 368.98,148.00 358.55,158.00 337.69,158.00" fill="#bde2c8" stroke="#86b297" stroke-width="1"/>
<polygon points="402.35,138.00 444.06,138.00 458.06,148.00 444.06,158.00 402.35,158.00" fill="#bde2c8" stroke="#86b297" stroke-width="1"/>
<polygon points="496.58,138.00 536.58,138.00 550.58,148.00 536.58,158.00 496.58,158.00" fill="#bde2c8" stroke="#86b297" stroke-width="1"/>
<polygon points="596.67,138.00 658.68,138.00 672.68,148.00 658.68,158.00 596.67,158.00" fill="#bde2c8" stroke="#86b297" stroke-width="1"/>
<polygon points="704.32,138.00 734.69,138.00 748.69,148.00 734.69,158.00 704.32,158.00" fill="#bde2c8" stroke="#86b297" stroke-width="1"/>
<polygon points="807.50,138.00 844.75,138.00 858.75,148.00 844.75,158.00 807.50,158.00" fill="#bde2c8" stroke="#86b297" stroke-width="1"/>
<polygon points="891.42,138.00 954.12,138.00 968.12,148.00 954.12,158.00 891.42,158.00" fill="#bde2c8" stroke="#86b297" stroke-width="1"/>
<text x="102" y="200" text-anchor="end" class="meta">IRN_018711</text>
<text x="983" y="200" class="meta">1,449 bp · 483 aa · accept · signal</text>
<line x1="136.14" y1="195.00" x2="179.13" y2="195.00" stroke="#86b297" stroke-width="1"/>
<line x1="232.10" y1="195.00" x2="272.34" y2="195.00" stroke="#86b297" stroke-width="1"/>
<line x1="309.14" y1="195.00" x2="337.69" y2="195.00" stroke="#86b297" stroke-width="1"/>
<line x1="368.98" y1="195.00" x2="402.35" y2="195.00" stroke="#86b297" stroke-width="1"/>
<line x1="458.06" y1="195.00" x2="496.58" y2="195.00" stroke="#86b297" stroke-width="1"/>
<line x1="550.58" y1="195.00" x2="596.67" y2="195.00" stroke="#86b297" stroke-width="1"/>
<line x1="672.68" y1="195.00" x2="704.32" y2="195.00" stroke="#86b297" stroke-width="1"/>
<line x1="748.69" y1="195.00" x2="807.50" y2="195.00" stroke="#86b297" stroke-width="1"/>
<line x1="858.75" y1="195.00" x2="891.42" y2="195.00" stroke="#86b297" stroke-width="1"/>
<polygon points="116.88,185.00 129.72,185.00 136.14,195.00 129.72,205.00 116.88,205.00" fill="#bde2c8" stroke="#86b297" stroke-width="1"/>
<polygon points="179.13,185.00 218.10,185.00 232.10,195.00 218.10,205.00 179.13,205.00" fill="#bde2c8" stroke="#86b297" stroke-width="1"/>
<polygon points="272.34,185.00 296.87,185.00 309.14,195.00 296.87,205.00 272.34,205.00" fill="#bde2c8" stroke="#86b297" stroke-width="1"/>
<polygon points="337.69,185.00 358.55,185.00 368.98,195.00 358.55,205.00 337.69,205.00" fill="#bde2c8" stroke="#86b297" stroke-width="1"/>
<polygon points="402.35,185.00 444.06,185.00 458.06,195.00 444.06,205.00 402.35,205.00" fill="#bde2c8" stroke="#86b297" stroke-width="1"/>
<polygon points="496.58,185.00 536.58,185.00 550.58,195.00 536.58,205.00 496.58,205.00" fill="#bde2c8" stroke="#86b297" stroke-width="1"/>
<polygon points="596.67,185.00 658.68,185.00 672.68,195.00 658.68,205.00 596.67,205.00" fill="#bde2c8" stroke="#86b297" stroke-width="1"/>
<polygon points="704.32,185.00 734.69,185.00 748.69,195.00 734.69,205.00 704.32,205.00" fill="#bde2c8" stroke="#86b297" stroke-width="1"/>
<polygon points="807.50,185.00 844.75,185.00 858.75,195.00 844.75,205.00 807.50,205.00" fill="#bde2c8" stroke="#86b297" stroke-width="1"/>
<polygon points="891.42,185.00 954.12,185.00 968.12,195.00 954.12,205.00 891.42,205.00" fill="#bde2c8" stroke="#86b297" stroke-width="1"/>
<text x="102" y="247" text-anchor="end" class="meta">IRN_033505 CURRENT</text>
<text x="983" y="247" class="meta">1,449 bp · 483 aa · accept · signal</text>
<line x1="136.14" y1="242.00" x2="179.13" y2="242.00" stroke="#176b37" stroke-width="2.4"/>
<line x1="232.10" y1="242.00" x2="272.34" y2="242.00" stroke="#176b37" stroke-width="2.4"/>
<line x1="309.14" y1="242.00" x2="337.69" y2="242.00" stroke="#176b37" stroke-width="2.4"/>
<line x1="368.98" y1="242.00" x2="402.35" y2="242.00" stroke="#176b37" stroke-width="2.4"/>
<line x1="458.06" y1="242.00" x2="496.58" y2="242.00" stroke="#176b37" stroke-width="2.4"/>
<line x1="550.58" y1="242.00" x2="596.67" y2="242.00" stroke="#176b37" stroke-width="2.4"/>
<line x1="672.68" y1="242.00" x2="704.32" y2="242.00" stroke="#176b37" stroke-width="2.4"/>
<line x1="748.69" y1="242.00" x2="807.50" y2="242.00" stroke="#176b37" stroke-width="2.4"/>
<line x1="858.75" y1="242.00" x2="891.42" y2="242.00" stroke="#176b37" stroke-width="2.4"/>
<polygon points="116.88,232.00 129.72,232.00 136.14,242.00 129.72,252.00 116.88,252.00" fill="#31a354" stroke="#176b37" stroke-width="2.4"/>
<polygon points="179.13,232.00 218.10,232.00 232.10,242.00 218.10,252.00 179.13,252.00" fill="#31a354" stroke="#176b37" stroke-width="2.4"/>
<polygon points="272.34,232.00 296.87,232.00 309.14,242.00 296.87,252.00 272.34,252.00" fill="#31a354" stroke="#176b37" stroke-width="2.4"/>
<polygon points="337.69,232.00 358.55,232.00 368.98,242.00 358.55,252.00 337.69,252.00" fill="#31a354" stroke="#176b37" stroke-width="2.4"/>
<polygon points="402.35,232.00 444.06,232.00 458.06,242.00 444.06,252.00 402.35,252.00" fill="#31a354" stroke="#176b37" stroke-width="2.4"/>
<polygon points="496.58,232.00 536.58,232.00 550.58,242.00 536.58,252.00 496.58,252.00" fill="#31a354" stroke="#176b37" stroke-width="2.4"/>
<polygon points="596.67,232.00 658.68,232.00 672.68,242.00 658.68,252.00 596.67,252.00" fill="#31a354" stroke="#176b37" stroke-width="2.4"/>
<polygon points="704.32,232.00 734.69,232.00 748.69,242.00 734.69,252.00 704.32,252.00" fill="#31a354" stroke="#176b37" stroke-width="2.4"/>
<polygon points="807.50,232.00 844.75,232.00 858.75,242.00 844.75,252.00 807.50,252.00" fill="#31a354" stroke="#176b37" stroke-width="2.4"/>
<polygon points="891.42,232.00 954.12,232.00 968.12,242.00 954.12,252.00 891.42,252.00" fill="#31a354" stroke="#176b37" stroke-width="2.4"/>
<text x="102" y="294" text-anchor="end" class="meta">IRN_051546</text>
<text x="983" y="294" class="meta">1,449 bp · 483 aa · accept · signal</text>
<line x1="136.14" y1="289.00" x2="179.13" y2="289.00" stroke="#86b297" stroke-width="1"/>
<line x1="232.10" y1="289.00" x2="272.34" y2="289.00" stroke="#86b297" stroke-width="1"/>
<line x1="309.14" y1="289.00" x2="337.69" y2="289.00" stroke="#86b297" stroke-width="1"/>
<line x1="368.98" y1="289.00" x2="402.35" y2="289.00" stroke="#86b297" stroke-width="1"/>
<line x1="458.06" y1="289.00" x2="496.58" y2="289.00" stroke="#86b297" stroke-width="1"/>
<line x1="550.58" y1="289.00" x2="596.67" y2="289.00" stroke="#86b297" stroke-width="1"/>
<line x1="672.68" y1="289.00" x2="704.32" y2="289.00" stroke="#86b297" stroke-width="1"/>
<line x1="748.69" y1="289.00" x2="807.50" y2="289.00" stroke="#86b297" stroke-width="1"/>
<line x1="858.75" y1="289.00" x2="891.42" y2="289.00" stroke="#86b297" stroke-width="1"/>
<polygon points="116.88,279.00 129.72,279.00 136.14,289.00 129.72,299.00 116.88,299.00" fill="#bde2c8" stroke="#86b297" stroke-width="1"/>
<polygon points="179.13,279.00 218.10,279.00 232.10,289.00 218.10,299.00 179.13,299.00" fill="#bde2c8" stroke="#86b297" stroke-width="1"/>
<polygon points="272.34,279.00 296.87,279.00 309.14,289.00 296.87,299.00 272.34,299.00" fill="#bde2c8" stroke="#86b297" stroke-width="1"/>
<polygon points="337.69,279.00 358.55,279.00 368.98,289.00 358.55,299.00 337.69,299.00" fill="#bde2c8" stroke="#86b297" stroke-width="1"/>
<polygon points="402.35,279.00 444.06,279.00 458.06,289.00 444.06,299.00 402.35,299.00" fill="#bde2c8" stroke="#86b297" stroke-width="1"/>
<polygon points="496.58,279.00 536.58,279.00 550.58,289.00 536.58,299.00 496.58,299.00" fill="#bde2c8" stroke="#86b297" stroke-width="1"/>
<polygon points="596.67,279.00 658.68,279.00 672.68,289.00 658.68,299.00 596.67,299.00" fill="#bde2c8" stroke="#86b297" stroke-width="1"/>
<polygon points="704.32,279.00 734.69,279.00 748.69,289.00 734.69,299.00 704.32,299.00" fill="#bde2c8" stroke="#86b297" stroke-width="1"/>
<polygon points="807.50,279.00 844.75,279.00 858.75,289.00 844.75,299.00 807.50,299.00" fill="#bde2c8" stroke="#86b297" stroke-width="1"/>
<polygon points="891.42,279.00 954.12,279.00 968.12,289.00 954.12,299.00 891.42,299.00" fill="#bde2c8" stroke="#86b297" stroke-width="1"/>
<text x="102" y="341" text-anchor="end" class="meta">IRN_033506</text>
<text x="983" y="341" class="meta">1,383 bp · 461 aa · accept · signal</text>
<line x1="232.10" y1="336.00" x2="272.34" y2="336.00" stroke="#86b297" stroke-width="1"/>
<line x1="309.14" y1="336.00" x2="337.69" y2="336.00" stroke="#86b297" stroke-width="1"/>
<line x1="368.98" y1="336.00" x2="402.35" y2="336.00" stroke="#86b297" stroke-width="1"/>
<line x1="458.06" y1="336.00" x2="496.58" y2="336.00" stroke="#86b297" stroke-width="1"/>
<line x1="550.58" y1="336.00" x2="596.67" y2="336.00" stroke="#86b297" stroke-width="1"/>
<line x1="672.68" y1="336.00" x2="704.32" y2="336.00" stroke="#86b297" stroke-width="1"/>
<line x1="748.69" y1="336.00" x2="807.50" y2="336.00" stroke="#86b297" stroke-width="1"/>
<line x1="858.75" y1="336.00" x2="891.42" y2="336.00" stroke="#86b297" stroke-width="1"/>
<polygon points="182.57,326.00 218.10,326.00 232.10,336.00 218.10,346.00 182.57,346.00" fill="#bde2c8" stroke="#86b297" stroke-width="1"/>
<polygon points="272.34,326.00 296.87,326.00 309.14,336.00 296.87,346.00 272.34,346.00" fill="#bde2c8" stroke="#86b297" stroke-width="1"/>
<polygon points="337.69,326.00 358.55,326.00 368.98,336.00 358.55,346.00 337.69,346.00" fill="#bde2c8" stroke="#86b297" stroke-width="1"/>
<polygon points="402.35,326.00 444.06,326.00 458.06,336.00 444.06,346.00 402.35,346.00" fill="#bde2c8" stroke="#86b297" stroke-width="1"/>
<polygon points="496.58,326.00 536.58,326.00 550.58,336.00 536.58,346.00 496.58,346.00" fill="#bde2c8" stroke="#86b297" stroke-width="1"/>
<polygon points="596.67,326.00 658.68,326.00 672.68,336.00 658.68,346.00 596.67,346.00" fill="#bde2c8" stroke="#86b297" stroke-width="1"/>
<polygon points="704.32,326.00 734.69,326.00 748.69,336.00 734.69,346.00 704.32,346.00" fill="#bde2c8" stroke="#86b297" stroke-width="1"/>
<polygon points="807.50,326.00 844.75,326.00 858.75,336.00 844.75,346.00 807.50,346.00" fill="#bde2c8" stroke="#86b297" stroke-width="1"/>
<polygon points="891.42,326.00 954.12,326.00 968.12,336.00 954.12,346.00 891.42,346.00" fill="#bde2c8" stroke="#86b297" stroke-width="1"/>
<text x="110" y="393" class="sub">Orange CDS outlines indicate has_signal=FALSE.</text>
</svg>
