<svg xmlns="http://www.w3.org/2000/svg" width="1200" height="354" viewBox="0 0 1200 354">
<style>text{font-family:Arial,sans-serif;fill:#222}.title{font-size:16px;font-weight:bold}.sub{font-size:11px;fill:#555}.meta{font-size:11px}.tick{font-size:10px;fill:#555}</style>
<text x="110" y="20" class="title">CM058172.1_4341741-4343911r</text>
<text x="110" y="37" class="sub">CM058172.1 · 4,341,741–4,343,911 · - strand</text>
<line x1="140.91" y1="52" x2="140.91" y2="344" stroke="#e8e8e8"/>
<line x1="180.03" y1="52" x2="180.03" y2="344" stroke="#e8e8e8"/>
<line x1="219.15" y1="52" x2="219.15" y2="344" stroke="#cccccc"/>
<text x="219.15" y="47" text-anchor="middle" class="tick">4,342,000</text>
<line x1="258.27" y1="52" x2="258.27" y2="344" stroke="#e8e8e8"/>
<line x1="297.40" y1="52" x2="297.40" y2="344" stroke="#e8e8e8"/>
<line x1="336.52" y1="52" x2="336.52" y2="344" stroke="#e8e8e8"/>
<line x1="375.64" y1="52" x2="375.64" y2="344" stroke="#e8e8e8"/>
<line x1="414.76" y1="52" x2="414.76" y2="344" stroke="#cccccc"/>
<text x="414.76" y="47" text-anchor="middle" class="tick">4,342,500</text>
<line x1="453.89" y1="52" x2="453.89" y2="344" stroke="#e8e8e8"/>
<line x1="493.01" y1="52" x2="493.01" y2="344" stroke="#e8e8e8"/>
<line x1="532.13" y1="52" x2="532.13" y2="344" stroke="#e8e8e8"/>
<line x1="571.26" y1="52" x2="571.26" y2="344" stroke="#e8e8e8"/>
<line x1="610.38" y1="52" x2="610.38" y2="344" stroke="#cccccc"/>
<text x="610.38" y="47" text-anchor="middle" class="tick">4,343,000</text>
<line x1="649.50" y1="52" x2="649.50" y2="344" stroke="#e8e8e8"/>
<line x1="688.62" y1="52" x2="688.62" y2="344" stroke="#e8e8e8"/>
<line x1="727.75" y1="52" x2="727.75" y2="344" stroke="#e8e8e8"/>
<line x1="766.87" y1="52" x2="766.87" y2="344" stroke="#e8e8e8"/>
<line x1="805.99" y1="52" x2="805.99" y2="344" stroke="#cccccc"/>
<text x="805.99" y="47" text-anchor="middle" class="tick">4,343,500</text>
<line x1="845.11" y1="52" x2="845.11" y2="344" stroke="#e8e8e8"/>
<line x1="884.24" y1="52" x2="884.24" y2="344" stroke="#e8e8e8"/>
<line x1="923.36" y1="52" x2="923.36" y2="344" stroke="#e8e8e8"/>
<line x1="962.48" y1="52" x2="962.48" y2="344" stroke="#e8e8e8"/>
<text x="102" y="100" text-anchor="end" class="meta">gene</text>
<text x="983" y="100" class="meta">2,171 bp</text>
<polygon points="117.82,96.00 131.82,90.00 967.18,90.00 967.18,102.00 131.82,102.00" fill="#303030" stroke="#303030" stroke-width="1"/>
<text x="102" y="153" text-anchor="end" class="meta">IRN_010297</text>
<text x="983" y="153" class="meta">1,419 bp · 473 aa · accept · signal</text>
<line x1="216.80" y1="148.00" x2="268.45" y2="148.00" stroke="#86b297" stroke-width="1"/>
<line x1="327.91" y1="148.00" x2="361.17" y2="148.00" stroke="#86b297" stroke-width="1"/>
<line x1="409.29" y1="148.00" x2="448.02" y2="148.00" stroke="#86b297" stroke-width="1"/>
<line x1="534.48" y1="148.00" x2="562.26" y2="148.00" stroke="#86b297" stroke-width="1"/>
<line x1="636.59" y1="148.00" x2="670.63" y2="148.00" stroke="#86b297" stroke-width="1"/>
<line x1="732.83" y1="148.00" x2="758.65" y2="148.00" stroke="#86b297" stroke-width="1"/>
<line x1="795.43" y1="148.00" x2="849.42" y2="148.00" stroke="#86b297" stroke-width="1"/>
<line x1="890.10" y1="148.00" x2="916.71" y2="148.00" stroke="#86b297" stroke-width="1"/>
<polygon points="117.82,148.00 131.82,138.00 216.80,138.00 216.80,158.00 131.82,158.00" fill="#bde2c8" stroke="#86b297" stroke-width="1"/>
<polygon points="268.45,148.00 282.45,138.00 327.91,138.00 327.91,158.00 282.45,158.00" fill="#bde2c8" stroke="#86b297" stroke-width="1"/>
<polygon points="361.17,148.00 375.17,138.00 409.29,138.00 409.29,158.00 375.17,158.00" fill="#bde2c8" stroke="#86b297" stroke-width="1"/>
<polygon points="448.02,148.00 462.02,138.00 534.48,138.00 534.48,158.00 462.02,158.00" fill="#bde2c8" stroke="#86b297" stroke-width="1"/>
<polygon points="562.26,148.00 576.26,138.00 636.59,138.00 636.59,158.00 576.26,158.00" fill="#bde2c8" stroke="#86b297" stroke-width="1"/>
<polygon points="670.63,148.00 684.63,138.00 732.83,138.00 732.83,158.00 684.63,158.00" fill="#bde2c8" stroke="#86b297" stroke-width="1"/>
<polygon points="758.65,148.00 770.91,138.00 795.43,138.00 795.43,158.00 770.91,158.00" fill="#bde2c8" stroke="#86b297" stroke-width="1"/>
<polygon points="849.42,148.00 862.98,138.00 890.10,138.00 890.10,158.00 862.98,158.00" fill="#bde2c8" stroke="#86b297" stroke-width="1"/>
<polygon points="916.71,148.00 930.71,138.00 964.83,138.00 964.83,158.00 930.71,158.00" fill="#bde2c8" stroke="#86b297" stroke-width="1"/>
<text x="102" y="200" text-anchor="end" class="meta">IRN_018682</text>
<text x="983" y="200" class="meta">1,419 bp · 473 aa · accept · signal</text>
<line x1="216.80" y1="195.00" x2="268.45" y2="195.00" stroke="#86b297" stroke-width="1"/>
<line x1="327.91" y1="195.00" x2="361.17" y2="195.00" stroke="#86b297" stroke-width="1"/>
<line x1="409.29" y1="195.00" x2="448.02" y2="195.00" stroke="#86b297" stroke-width="1"/>
<line x1="534.48" y1="195.00" x2="562.26" y2="195.00" stroke="#86b297" stroke-width="1"/>
<line x1="636.59" y1="195.00" x2="670.63" y2="195.00" stroke="#86b297" stroke-width="1"/>
<line x1="732.83" y1="195.00" x2="758.65" y2="195.00" stroke="#86b297" stroke-width="1"/>
<line x1="795.43" y1="195.00" x2="849.42" y2="195.00" stroke="#86b297" stroke-width="1"/>
<line x1="890.10" y1="195.00" x2="916.71" y2="195.00" stroke="#86b297" stroke-width="1"/>
<polygon points="117.82,195.00 131.82,185.00 216.80,185.00 216.80,205.00 131.82,205.00" fill="#bde2c8" stroke="#86b297" stroke-width="1"/>
<polygon points="268.45,195.00 282.45,185.00 327.91,185.00 327.91,205.00 282.45,205.00" fill="#bde2c8" stroke="#86b297" stroke-width="1"/>
<polygon points="361.17,195.00 375.17,185.00 409.29,185.00 409.29,205.00 375.17,205.00" fill="#bde2c8" stroke="#86b297" stroke-width="1"/>
<polygon points="448.02,195.00 462.02,185.00 534.48,185.00 534.48,205.00 462.02,205.00" fill="#bde2c8" stroke="#86b297" stroke-width="1"/>
<polygon points="562.26,195.00 576.26,185.00 636.59,185.00 636.59,205.00 576.26,205.00" fill="#bde2c8" stroke="#86b297" stroke-width="1"/>
<polygon points="670.63,195.00 684.63,185.00 732.83,185.00 732.83,205.00 684.63,205.00" fill="#bde2c8" stroke="#86b297" stroke-width="1"/>
<polygon points="758.65,195.00 770.91,185.00 795.43,185.00 795.43,205.00 770.91,205.00" fill="#bde2c8" stroke="#86b297" stroke-width="1"/>
<polygon points="849.42,195.00 862.98,185.00 890.10,185.00 890.10,205.00 862.98,205.00" fill="#bde2c8" stroke="#86b297" stroke-width="1"/>
<polygon points="916.71,195.00 930.71,185.00 964.83,185.00 964.83,205.00 930.71,205.00" fill="#bde2c8" stroke="#86b297" stroke-width="1"/>
<text x="102" y="247" text-anchor="end" class="meta">IRN_019737 CURRENT</text>
<text x="983" y="247" class="meta">1,395 bp · 465 aa · accept · signal</text>
<line x1="216.80" y1="242.00" x2="268.45" y2="242.00" stroke="#176b37" stroke-width="2.4"/>
<line x1="327.91" y1="242.00" x2="385.81" y2="242.00" stroke="#176b37" stroke-width="2.4"/>
<line x1="409.29" y1="242.00" x2="448.02" y2="242.00" stroke="#176b37" stroke-width="2.4"/>
<line x1="534.48" y1="242.00" x2="562.26" y2="242.00" stroke="#176b37" stroke-width="2.4"/>
<line x1="636.59" y1="242.00" x2="655.37" y2="242.00" stroke="#176b37" stroke-width="2.4"/>
<line x1="732.83" y1="242.00" x2="758.65" y2="242.00" stroke="#176b37" stroke-width="2.4"/>
<line x1="795.43" y1="242.00" x2="849.42" y2="242.00" stroke="#176b37" stroke-width="2.4"/>
<line x1="890.10" y1="242.00" x2="916.71" y2="242.00" stroke="#176b37" stroke-width="2.4"/>
<polygon points="117.82,242.00 131.82,232.00 216.80,232.00 216.80,252.00 131.82,252.00" fill="#31a354" stroke="#176b37" stroke-width="2.4"/>
<polygon points="268.45,242.00 282.45,232.00 327.91,232.00 327.91,252.00 282.45,252.00" fill="#31a354" stroke="#176b37" stroke-width="2.4"/>
<polygon points="385.81,242.00 393.64,232.00 409.29,232.00 409.29,252.00 393.64,252.00" fill="#31a354" stroke="#176b37" stroke-width="2.4"/>
<polygon points="448.02,242.00 462.02,232.00 534.48,232.00 534.48,252.00 462.02,252.00" fill="#31a354" stroke="#176b37" stroke-width="2.4"/>
<polygon points="562.26,242.00 576.26,232.00 636.59,232.00 636.59,252.00 576.26,252.00" fill="#31a354" stroke="#176b37" stroke-width="2.4"/>
<polygon points="655.37,242.00 669.37,232.00 732.83,232.00 732.83,252.00 669.37,252.00" fill="#31a354" stroke="#176b37" stroke-width="2.4"/>
<polygon points="758.65,242.00 770.91,232.00 795.43,232.00 795.43,252.00 770.91,252.00" fill="#31a354" stroke="#176b37" stroke-width="2.4"/>
<polygon points="849.42,242.00 862.98,232.00 890.10,232.00 890.10,252.00 862.98,252.00" fill="#31a354" stroke="#176b37" stroke-width="2.4"/>
<polygon points="916.71,242.00 930.71,232.00 964.83,232.00 964.83,252.00 930.71,252.00" fill="#31a354" stroke="#176b37" stroke-width="2.4"/>
<text x="102" y="294" text-anchor="end" class="meta">IRN_051529</text>
<text x="983" y="294" class="meta">1,425 bp · 475 aa · accept · signal</text>
<line x1="216.80" y1="289.00" x2="268.45" y2="289.00" stroke="#86b297" stroke-width="1"/>
<line x1="327.91" y1="289.00" x2="361.17" y2="289.00" stroke="#86b297" stroke-width="1"/>
<line x1="409.29" y1="289.00" x2="448.02" y2="289.00" stroke="#86b297" stroke-width="1"/>
<line x1="534.48" y1="289.00" x2="562.26" y2="289.00" stroke="#86b297" stroke-width="1"/>
<line x1="636.59" y1="289.00" x2="670.63" y2="289.00" stroke="#86b297" stroke-width="1"/>
<line x1="732.83" y1="289.00" x2="758.65" y2="289.00" stroke="#86b297" stroke-width="1"/>
<line x1="795.43" y1="289.00" x2="849.42" y2="289.00" stroke="#86b297" stroke-width="1"/>
<line x1="890.10" y1="289.00" x2="916.71" y2="289.00" stroke="#86b297" stroke-width="1"/>
<polygon points="117.82,289.00 131.82,279.00 216.80,279.00 216.80,299.00 131.82,299.00" fill="#bde2c8" stroke="#86b297" stroke-width="1"/>
<polygon points="268.45,289.00 282.45,279.00 327.91,279.00 327.91,299.00 282.45,299.00" fill="#bde2c8" stroke="#86b297" stroke-width="1"/>
<polygon points="361.17,289.00 375.17,279.00 409.29,279.00 409.29,299.00 375.17,299.00" fill="#bde2c8" stroke="#86b297" stroke-width="1"/>
<polygon points="448.02,289.00 462.02,279.00 534.48,279.00 534.48,299.00 462.02,299.00" fill="#bde2c8" stroke="#86b297" stroke-width="1"/>
<polygon points="562.26,289.00 576.26,279.00 636.59,279.00 636.59,299.00 576.26,299.00" fill="#bde2c8" stroke="#86b297" stroke-width="1"/>
<polygon points="670.63,289.00 684.63,279.00 732.83,279.00 732.83,299.00 684.63,299.00" fill="#bde2c8" stroke="#86b297" stroke-width="1"/>
<polygon points="758.65,289.00 770.91,279.00 795.43,279.00 795.43,299.00 770.91,299.00" fill="#bde2c8" stroke="#86b297" stroke-width="1"/>
<polygon points="849.42,289.00 862.98,279.00 890.10,279.00 890.10,299.00 862.98,299.00" fill="#bde2c8" stroke="#86b297" stroke-width="1"/>
<polygon points="916.71,289.00 930.71,279.00 967.18,279.00 967.18,299.00 930.71,299.00" fill="#bde2c8" stroke="#86b297" stroke-width="1"/>
<text x="110" y="346" class="sub">Orange CDS outlines indicate has_signal=FALSE.</text>
</svg>
