<svg xmlns="http://www.w3.org/2000/svg" width="1200" height="354" viewBox="0 0 1200 354">
<style>text{font-family:Arial,sans-serif;fill:#222}.title{font-size:16px;font-weight:bold}.sub{font-size:11px;fill:#555}.meta{font-size:11px}.tick{font-size:10px;fill:#555}</style>
<text x="110" y="20" class="title">CM058173.1_5688401-5692724r</text>
<text x="110" y="37" class="sub">CM058173.1 · 5,688,401–5,692,724 · - strand</text>
<line x1="113.77" y1="52" x2="113.77" y2="344" stroke="#e8e8e8"/>
<line x1="153.41" y1="52" x2="153.41" y2="344" stroke="#e8e8e8"/>
<line x1="193.05" y1="52" x2="193.05" y2="344" stroke="#e8e8e8"/>
<line x1="232.69" y1="52" x2="232.69" y2="344" stroke="#cccccc"/>
<text x="232.69" y="47" text-anchor="middle" class="tick">5,689,000</text>
<line x1="272.34" y1="52" x2="272.34" y2="344" stroke="#e8e8e8"/>
<line x1="311.98" y1="52" x2="311.98" y2="344" stroke="#e8e8e8"/>
<line x1="351.62" y1="52" x2="351.62" y2="344" stroke="#e8e8e8"/>
<line x1="391.26" y1="52" x2="391.26" y2="344" stroke="#e8e8e8"/>
<line x1="430.91" y1="52" x2="430.91" y2="344" stroke="#cccccc"/>
<text x="430.91" y="47" text-anchor="middle" class="tick">5,690,000</text>
<line x1="470.55" y1="52" x2="470.55" y2="344" stroke="#e8e8e8"/>
<line x1="510.19" y1="52" x2="510.19" y2="344" stroke="#e8e8e8"/>
<line x1="549.83" y1="52" x2="549.83" y2="344" stroke="#e8e8e8"/>
<line x1="589.48" y1="52" x2="589.48" y2="344" stroke="#e8e8e8"/>
<line x1="629.12" y1="52" x2="629.12" y2="344" stroke="#cccccc"/>
<text x="629.12" y="47" text-anchor="middle" class="tick">5,691,000</text>
<line x1="668.76" y1="52" x2="668.76" y2="344" stroke="#e8e8e8"/>
<line x1="708.40" y1="52" x2="708.40" y2="344" stroke="#e8e8e8"/>
<line x1="748.05" y1="52" x2="748.05" y2="344" stroke="#e8e8e8"/>
<line x1="787.69" y1="52" x2="787.69" y2="344" stroke="#e8e8e8"/>
<line x1="827.33" y1="52" x2="827.33" y2="344" stroke="#cccccc"/>
<text x="827.33" y="47" text-anchor="middle" class="tick">5,692,000</text>
<line x1="866.97" y1="52" x2="866.97" y2="344" stroke="#e8e8e8"/>
<line x1="906.62" y1="52" x2="906.62" y2="344" stroke="#e8e8e8"/>
<line x1="946.26" y1="52" x2="946.26" y2="344" stroke="#e8e8e8"/>
<text x="102" y="100" text-anchor="end" class="meta">gene</text>
<text x="983" y="100" class="meta">4,324 bp</text>
<polygon points="113.96,96.00 127.96,90.00 971.04,90.00 971.04,102.00 127.96,102.00" fill="#303030" stroke="#303030" stroke-width="1"/>
<text x="102" y="153" text-anchor="end" class="meta">IRN_012764</text>
<text x="983" y="153" class="meta">2,733 bp · 911 aa · accept · signal</text>
<line x1="167.48" y1="148.00" x2="182.94" y2="148.00" stroke="#86b297" stroke-width="1"/>
<line x1="205.93" y1="148.00" x2="228.93" y2="148.00" stroke="#86b297" stroke-width="1"/>
<line x1="269.76" y1="148.00" x2="285.81" y2="148.00" stroke="#86b297" stroke-width="1"/>
<line x1="290.97" y1="148.00" x2="309.20" y2="148.00" stroke="#86b297" stroke-width="1"/>
<line x1="348.65" y1="148.00" x2="362.92" y2="148.00" stroke="#86b297" stroke-width="1"/>
<line x1="390.27" y1="148.00" x2="416.83" y2="148.00" stroke="#86b297" stroke-width="1"/>
<line x1="444.38" y1="148.00" x2="473.72" y2="148.00" stroke="#86b297" stroke-width="1"/>
<line x1="480.86" y1="148.00" x2="494.53" y2="148.00" stroke="#86b297" stroke-width="1"/>
<line x1="504.24" y1="148.00" x2="516.14" y2="148.00" stroke="#86b297" stroke-width="1"/>
<line x1="557.17" y1="148.00" x2="569.06" y2="148.00" stroke="#86b297" stroke-width="1"/>
<line x1="596.81" y1="148.00" x2="616.24" y2="148.00" stroke="#86b297" stroke-width="1"/>
<line x1="631.89" y1="148.00" x2="645.37" y2="148.00" stroke="#86b297" stroke-width="1"/>
<line x1="675.70" y1="148.00" x2="691.36" y2="148.00" stroke="#86b297" stroke-width="1"/>
<line x1="724.66" y1="148.00" x2="745.27" y2="148.00" stroke="#86b297" stroke-width="1"/>
<line x1="774.01" y1="148.00" x2="797.40" y2="148.00" stroke="#86b297" stroke-width="1"/>
<line x1="828.72" y1="148.00" x2="844.38" y2="148.00" stroke="#86b297" stroke-width="1"/>
<line x1="891.75" y1="148.00" x2="906.02" y2="148.00" stroke="#86b297" stroke-width="1"/>
<line x1="941.11" y1="148.00" x2="953.59" y2="148.00" stroke="#86b297" stroke-width="1"/>
<polygon points="113.96,148.00 127.96,138.00 167.48,138.00 167.48,158.00 127.96,158.00" fill="#bde2c8" stroke="#86b297" stroke-width="1"/>
<polygon points="182.94,148.00 190.61,138.00 205.93,138.00 205.93,158.00 190.61,158.00" fill="#bde2c8" stroke="#86b297" stroke-width="1"/>
<polygon points="228.93,148.00 242.54,138.00 269.76,138.00 269.76,158.00 242.54,158.00" fill="#bde2c8" stroke="#86b297" stroke-width="1"/>
<polygon points="285.81,148.00 290.81,138.00 290.97,138.00 290.97,158.00 290.81,158.00" fill="#bde2c8" stroke="#86b297" stroke-width="1"/>
<polygon points="309.20,148.00 322.35,138.00 348.65,138.00 348.65,158.00 322.35,158.00" fill="#bde2c8" stroke="#86b297" stroke-width="1"/>
<polygon points="362.92,148.00 372.04,138.00 390.27,138.00 390.27,158.00 372.04,158.00" fill="#bde2c8" stroke="#86b297" stroke-width="1"/>
<polygon points="416.83,148.00 426.02,138.00 444.38,138.00 444.38,158.00 426.02,158.00" fill="#bde2c8" stroke="#86b297" stroke-width="1"/>
<polygon points="473.72,148.00 478.72,138.00 480.86,138.00 480.86,158.00 478.72,158.00" fill="#bde2c8" stroke="#86b297" stroke-width="1"/>
<polygon points="494.53,148.00 499.53,138.00 504.24,138.00 504.24,158.00 499.53,158.00" fill="#bde2c8" stroke="#86b297" stroke-width="1"/>
<polygon points="516.14,148.00 529.81,138.00 557.17,138.00 557.17,158.00 529.81,158.00" fill="#bde2c8" stroke="#86b297" stroke-width="1"/>
<polygon points="569.06,148.00 578.31,138.00 596.81,138.00 596.81,158.00 578.31,158.00" fill="#bde2c8" stroke="#86b297" stroke-width="1"/>
<polygon points="616.24,148.00 621.45,138.00 631.89,138.00 631.89,158.00 621.45,158.00" fill="#bde2c8" stroke="#86b297" stroke-width="1"/>
<polygon points="645.37,148.00 655.48,138.00 675.70,138.00 675.70,158.00 655.48,158.00" fill="#bde2c8" stroke="#86b297" stroke-width="1"/>
<polygon points="691.36,148.00 702.46,138.00 724.66,138.00 724.66,158.00 702.46,158.00" fill="#bde2c8" stroke="#86b297" stroke-width="1"/>
<polygon points="745.27,148.00 754.85,138.00 774.01,138.00 774.01,158.00 754.85,158.00" fill="#bde2c8" stroke="#86b297" stroke-width="1"/>
<polygon points="797.40,148.00 807.84,138.00 828.72,138.00 828.72,158.00 807.84,158.00" fill="#bde2c8" stroke="#86b297" stroke-width="1"/>
<polygon points="844.38,148.00 858.38,138.00 891.75,138.00 891.75,158.00 858.38,158.00" fill="#bde2c8" stroke="#86b297" stroke-width="1"/>
<polygon points="906.02,148.00 917.72,138.00 941.11,138.00 941.11,158.00 917.72,158.00" fill="#bde2c8" stroke="#86b297" stroke-width="1"/>
<polygon points="953.59,148.00 959.41,138.00 971.04,138.00 971.04,158.00 959.41,158.00" fill="#bde2c8" stroke="#86b297" stroke-width="1"/>
<text x="102" y="200" text-anchor="end" class="meta">IRN_018695</text>
<text x="983" y="200" class="meta">2,733 bp · 911 aa · accept · signal</text>
<line x1="167.48" y1="195.00" x2="182.94" y2="195.00" stroke="#86b297" stroke-width="1"/>
<line x1="205.93" y1="195.00" x2="228.93" y2="195.00" stroke="#86b297" stroke-width="1"/>
<line x1="269.76" y1="195.00" x2="285.81" y2="195.00" stroke="#86b297" stroke-width="1"/>
<line x1="290.97" y1="195.00" x2="309.20" y2="195.00" stroke="#86b297" stroke-width="1"/>
<line x1="348.65" y1="195.00" x2="362.92" y2="195.00" stroke="#86b297" stroke-width="1"/>
<line x1="390.27" y1="195.00" x2="416.83" y2="195.00" stroke="#86b297" stroke-width="1"/>
<line x1="444.38" y1="195.00" x2="473.72" y2="195.00" stroke="#86b297" stroke-width="1"/>
<line x1="480.86" y1="195.00" x2="494.53" y2="195.00" stroke="#86b297" stroke-width="1"/>
<line x1="504.24" y1="195.00" x2="516.14" y2="195.00" stroke="#86b297" stroke-width="1"/>
<line x1="557.17" y1="195.00" x2="569.06" y2="195.00" stroke="#86b297" stroke-width="1"/>
<line x1="596.81" y1="195.00" x2="616.24" y2="195.00" stroke="#86b297" stroke-width="1"/>
<line x1="631.89" y1="195.00" x2="645.37" y2="195.00" stroke="#86b297" stroke-width="1"/>
<line x1="675.70" y1="195.00" x2="691.36" y2="195.00" stroke="#86b297" stroke-width="1"/>
<line x1="724.66" y1="195.00" x2="745.27" y2="195.00" stroke="#86b297" stroke-width="1"/>
<line x1="774.01" y1="195.00" x2="797.40" y2="195.00" stroke="#86b297" stroke-width="1"/>
<line x1="828.72" y1="195.00" x2="844.38" y2="195.00" stroke="#86b297" stroke-width="1"/>
<line x1="891.75" y1="195.00" x2="906.02" y2="195.00" stroke="#86b297" stroke-width="1"/>
<line x1="941.11" y1="195.00" x2="953.59" y2="195.00" stroke="#86b297" stroke-width="1"/>
<polygon points="113.96,195.00 127.96,185.00 167.48,185.00 167.48,205.00 127.96,205.00" fill="#bde2c8" stroke="#86b297" stroke-width="1"/>
<polygon points="182.94,195.00 190.61,185.00 205.93,185.00 205.93,205.00 190.61,205.00" fill="#bde2c8" stroke="#86b297" stroke-width="1"/>
<polygon points="228.93,195.00 242.54,185.00 269.76,185.00 269.76,205.00 242.54,205.00" fill="#bde2c8" stroke="#86b297" stroke-width="1"/>
<polygon points="285.81,195.00 290.81,185.00 290.97,185.00 290.97,205.00 290.81,205.00" fill="#bde2c8" stroke="#86b297" stroke-width="1"/>
<polygon points="309.20,195.00 322.35,185.00 348.65,185.00 348.65,205.00 322.35,205.00" fill="#bde2c8" stroke="#86b297" stroke-width="1"/>
<polygon points="362.92,195.00 372.04,185.00 390.27,185.00 390.27,205.00 372.04,205.00" fill="#bde2c8" stroke="#86b297" stroke-width="1"/>
<polygon points="416.83,195.00 426.02,185.00 444.38,185.00 444.38,205.00 426.02,205.00" fill="#bde2c8" stroke="#86b297" stroke-width="1"/>
<polygon points="473.72,195.00 478.72,185.00 480.86,185.00 480.86,205.00 478.72,205.00" fill="#bde2c8" stroke="#86b297" stroke-width="1"/>
<polygon points="494.53,195.00 499.53,185.00 504.24,185.00 504.24,205.00 499.53,205.00" fill="#bde2c8" stroke="#86b297" stroke-width="1"/>
<polygon points="516.14,195.00 529.81,185.00 557.17,185.00 557.17,205.00 529.81,205.00" fill="#bde2c8" stroke="#86b297" stroke-width="1"/>
<polygon points="569.06,195.00 578.31,185.00 596.81,185.00 596.81,205.00 578.31,205.00" fill="#bde2c8" stroke="#86b297" stroke-width="1"/>
<polygon points="616.24,195.00 621.45,185.00 631.89,185.00 631.89,205.00 621.45,205.00" fill="#bde2c8" stroke="#86b297" stroke-width="1"/>
<polygon points="645.37,195.00 655.48,185.00 675.70,185.00 675.70,205.00 655.48,205.00" fill="#bde2c8" stroke="#86b297" stroke-width="1"/>
<polygon points="691.36,195.00 702.46,185.00 724.66,185.00 724.66,205.00 702.46,205.00" fill="#bde2c8" stroke="#86b297" stroke-width="1"/>
<polygon points="745.27,195.00 754.85,185.00 774.01,185.00 774.01,205.00 754.85,205.00" fill="#bde2c8" stroke="#86b297" stroke-width="1"/>
<polygon points="797.40,195.00 807.84,185.00 828.72,185.00 828.72,205.00 807.84,205.00" fill="#bde2c8" stroke="#86b297" stroke-width="1"/>
<polygon points="844.38,195.00 858.38,185.00 891.75,185.00 891.75,205.00 858.38,205.00" fill="#bde2c8" stroke="#86b297" stroke-width="1"/>
<polygon points="906.02,195.00 917.72,185.00 941.11,185.00 941.11,205.00 917.72,205.00" fill="#bde2c8" stroke="#86b297" stroke-width="1"/>
<polygon points="953.59,195.00 959.41,185.00 971.04,185.00 971.04,205.00 959.41,205.00" fill="#bde2c8" stroke="#86b297" stroke-width="1"/>
<text x="102" y="247" text-anchor="end" class="meta">IRN_031157</text>
<text x="983" y="247" class="meta">2,733 bp · 911 aa · accept · signal</text>
<line x1="167.48" y1="242.00" x2="182.94" y2="242.00" stroke="#86b297" stroke-width="1"/>
<line x1="205.93" y1="242.00" x2="228.93" y2="242.00" stroke="#86b297" stroke-width="1"/>
<line x1="269.76" y1="242.00" x2="285.81" y2="242.00" stroke="#86b297" stroke-width="1"/>
<line x1="290.97" y1="242.00" x2="309.20" y2="242.00" stroke="#86b297" stroke-width="1"/>
<line x1="348.65" y1="242.00" x2="362.92" y2="242.00" stroke="#86b297" stroke-width="1"/>
<line x1="390.27" y1="242.00" x2="416.83" y2="242.00" stroke="#86b297" stroke-width="1"/>
<line x1="444.38" y1="242.00" x2="473.72" y2="242.00" stroke="#86b297" stroke-width="1"/>
<line x1="480.86" y1="242.00" x2="494.53" y2="242.00" stroke="#86b297" stroke-width="1"/>
<line x1="504.24" y1="242.00" x2="516.14" y2="242.00" stroke="#86b297" stroke-width="1"/>
<line x1="557.17" y1="242.00" x2="569.06" y2="242.00" stroke="#86b297" stroke-width="1"/>
<line x1="596.81" y1="242.00" x2="616.24" y2="242.00" stroke="#86b297" stroke-width="1"/>
<line x1="631.89" y1="242.00" x2="645.37" y2="242.00" stroke="#86b297" stroke-width="1"/>
<line x1="675.70" y1="242.00" x2="691.36" y2="242.00" stroke="#86b297" stroke-width="1"/>
<line x1="724.66" y1="242.00" x2="745.27" y2="242.00" stroke="#86b297" stroke-width="1"/>
<line x1="774.01" y1="242.00" x2="797.40" y2="242.00" stroke="#86b297" stroke-width="1"/>
<line x1="828.72" y1="242.00" x2="844.38" y2="242.00" stroke="#86b297" stroke-width="1"/>
<line x1="891.75" y1="242.00" x2="906.02" y2="242.00" stroke="#86b297" stroke-width="1"/>
<line x1="941.11" y1="242.00" x2="953.59" y2="242.00" stroke="#86b297" stroke-width="1"/>
<polygon points="113.96,242.00 127.96,232.00 167.48,232.00 167.48,252.00 127.96,252.00" fill="#bde2c8" stroke="#86b297" stroke-width="1"/>
<polygon points="182.94,242.00 190.61,232.00 205.93,232.00 205.93,252.00 190.61,252.00" fill="#bde2c8" stroke="#86b297" stroke-width="1"/>
<polygon points="228.93,242.00 242.54,232.00 269.76,232.00 269.76,252.00 242.54,252.00" fill="#bde2c8" stroke="#86b297" stroke-width="1"/>
<polygon points="285.81,242.00 290.81,232.00 290.97,232.00 290.97,252.00 290.81,252.00" fill="#bde2c8" stroke="#86b297" stroke-width="1"/>
<polygon points="309.20,242.00 322.35,232.00 348.65,232.00 348.65,252.00 322.35,252.00" fill="#bde2c8" stroke="#86b297" stroke-width="1"/>
<polygon points="362.92,242.00 372.04,232.00 390.27,232.00 390.27,252.00 372.04,252.00" fill="#bde2c8" stroke="#86b297" stroke-width="1"/>
<polygon points="416.83,242.00 426.02,232.00 444.38,232.00 444.38,252.00 426.02,252.00" fill="#bde2c8" stroke="#86b297" stroke-width="1"/>
<polygon points="473.72,242.00 478.72,232.00 480.86,232.00 480.86,252.00 478.72,252.00" fill="#bde2c8" stroke="#86b297" stroke-width="1"/>
<polygon points="494.53,242.00 499.53,232.00 504.24,232.00 504.24,252.00 499.53,252.00" fill="#bde2c8" stroke="#86b297" stroke-width="1"/>
<polygon points="516.14,242.00 529.81,232.00 557.17,232.00 557.17,252.00 529.81,252.00" fill="#bde2c8" stroke="#86b297" stroke-width="1"/>
<polygon points="569.06,242.00 578.31,232.00 596.81,232.00 596.81,252.00 578.31,252.00" fill="#bde2c8" stroke="#86b297" stroke-width="1"/>
<polygon points="616.24,242.00 621.45,232.00 631.89,232.00 631.89,252.00 621.45,252.00" fill="#bde2c8" stroke="#86b297" stroke-width="1"/>
<polygon points="645.37,242.00 655.48,232.00 675.70,232.00 675.70,252.00 655.48,252.00" fill="#bde2c8" stroke="#86b297" stroke-width="1"/>
<polygon points="691.36,242.00 702.46,232.00 724.66,232.00 724.66,252.00 702.46,252.00" fill="#bde2c8" stroke="#86b297" stroke-width="1"/>
<polygon points="745.27,242.00 754.85,232.00 774.01,232.00 774.01,252.00 754.85,252.00" fill="#bde2c8" stroke="#86b297" stroke-width="1"/>
<polygon points="797.40,242.00 807.84,232.00 828.72,232.00 828.72,252.00 807.84,252.00" fill="#bde2c8" stroke="#86b297" stroke-width="1"/>
<polygon points="844.38,242.00 858.38,232.00 891.75,232.00 891.75,252.00 858.38,252.00" fill="#bde2c8" stroke="#86b297" stroke-width="1"/>
<polygon points="906.02,242.00 917.72,232.00 941.11,232.00 941.11,252.00 917.72,252.00" fill="#bde2c8" stroke="#86b297" stroke-width="1"/>
<polygon points="953.59,242.00 959.41,232.00 971.04,232.00 971.04,252.00 959.41,252.00" fill="#bde2c8" stroke="#86b297" stroke-width="1"/>
<text x="102" y="294" text-anchor="end" class="meta">IRN_051538 CURRENT</text>
<text x="983" y="294" class="meta">2,733 bp · 911 aa · accept · signal</text>
<line x1="167.48" y1="289.00" x2="182.94" y2="289.00" stroke="#176b37" stroke-width="2.4"/>
<line x1="205.93" y1="289.00" x2="228.93" y2="289.00" stroke="#176b37" stroke-width="2.4"/>
<line x1="269.76" y1="289.00" x2="285.81" y2="289.00" stroke="#176b37" stroke-width="2.4"/>
<line x1="290.97" y1="289.00" x2="309.20" y2="289.00" stroke="#176b37" stroke-width="2.4"/>
<line x1="348.65" y1="289.00" x2="362.92" y2="289.00" stroke="#176b37" stroke-width="2.4"/>
<line x1="390.27" y1="289.00" x2="416.83" y2="289.00" stroke="#176b37" stroke-width="2.4"/>
<line x1="444.38" y1="289.00" x2="473.72" y2="289.00" stroke="#176b37" stroke-width="2.4"/>
<line x1="480.86" y1="289.00" x2="494.53" y2="289.00" stroke="#176b37" stroke-width="2.4"/>
<line x1="504.24" y1="289.00" x2="516.14" y2="289.00" stroke="#176b37" stroke-width="2.4"/>
<line x1="557.17" y1="289.00" x2="569.06" y2="289.00" stroke="#176b37" stroke-width="2.4"/>
<line x1="596.81" y1="289.00" x2="616.24" y2="289.00" stroke="#176b37" stroke-width="2.4"/>
<line x1="631.89" y1="289.00" x2="645.37" y2="289.00" stroke="#176b37" stroke-width="2.4"/>
<line x1="675.70" y1="289.00" x2="691.36" y2="289.00" stroke="#176b37" stroke-width="2.4"/>
<line x1="724.66" y1="289.00" x2="745.27" y2="289.00" stroke="#176b37" stroke-width="2.4"/>
<line x1="774.01" y1="289.00" x2="797.40" y2="289.00" stroke="#176b37" stroke-width="2.4"/>
<line x1="828.72" y1="289.00" x2="844.38" y2="289.00" stroke="#176b37" stroke-width="2.4"/>
<line x1="891.75" y1="289.00" x2="906.02" y2="289.00" stroke="#176b37" stroke-width="2.4"/>
<line x1="941.11" y1="289.00" x2="953.59" y2="289.00" stroke="#176b37" stroke-width="2.4"/>
<polygon points="113.96,289.00 127.96,279.00 167.48,279.00 167.48,299.00 127.96,299.00" fill="#31a354" stroke="#176b37" stroke-width="2.4"/>
<polygon points="182.94,289.00 190.61,279.00 205.93,279.00 205.93,299.00 190.61,299.00" fill="#31a354" stroke="#176b37" stroke-width="2.4"/>
<polygon points="228.93,289.00 242.54,279.00 269.76,279.00 269.76,299.00 242.54,299.00" fill="#31a354" stroke="#176b37" stroke-width="2.4"/>
<polygon points="285.81,289.00 290.81,279.00 290.97,279.00 290.97,299.00 290.81,299.00" fill="#31a354" stroke="#176b37" stroke-width="2.4"/>
<polygon points="309.20,289.00 322.35,279.00 348.65,279.00 348.65,299.00 322.35,299.00" fill="#31a354" stroke="#176b37" stroke-width="2.4"/>
<polygon points="362.92,289.00 372.04,279.00 390.27,279.00 390.27,299.00 372.04,299.00" fill="#31a354" stroke="#176b37" stroke-width="2.4"/>
<polygon points="416.83,289.00 426.02,279.00 444.38,279.00 444.38,299.00 426.02,299.00" fill="#31a354" stroke="#176b37" stroke-width="2.4"/>
<polygon points="473.72,289.00 478.72,279.00 480.86,279.00 480.86,299.00 478.72,299.00" fill="#31a354" stroke="#176b37" stroke-width="2.4"/>
<polygon points="494.53,289.00 499.53,279.00 504.24,279.00 504.24,299.00 499.53,299.00" fill="#31a354" stroke="#176b37" stroke-width="2.4"/>
<polygon points="516.14,289.00 529.81,279.00 557.17,279.00 557.17,299.00 529.81,299.00" fill="#31a354" stroke="#176b37" stroke-width="2.4"/>
<polygon points="569.06,289.00 578.31,279.00 596.81,279.00 596.81,299.00 578.31,299.00" fill="#31a354" stroke="#176b37" stroke-width="2.4"/>
<polygon points="616.24,289.00 621.45,279.00 631.89,279.00 631.89,299.00 621.45,299.00" fill="#31a354" stroke="#176b37" stroke-width="2.4"/>
<polygon points="645.37,289.00 655.48,279.00 675.70,279.00 675.70,299.00 655.48,299.00" fill="#31a354" stroke="#176b37" stroke-width="2.4"/>
<polygon points="691.36,289.00 702.46,279.00 724.66,279.00 724.66,299.00 702.46,299.00" fill="#31a354" stroke="#176b37" stroke-width="2.4"/>
<polygon points="745.27,289.00 754.85,279.00 774.01,279.00 774.01,299.00 754.85,299.00" fill="#31a354" stroke="#176b37" stroke-width="2.4"/>
<polygon points="797.40,289.00 807.84,279.00 828.72,279.00 828.72,299.00 807.84,299.00" fill="#31a354" stroke="#176b37" stroke-width="2.4"/>
<polygon points="844.38,289.00 858.38,279.00 891.75,279.00 891.75,299.00 858.38,299.00" fill="#31a354" stroke="#176b37" stroke-width="2.4"/>
<polygon points="906.02,289.00 917.72,279.00 941.11,279.00 941.11,299.00 917.72,299.00" fill="#31a354" stroke="#176b37" stroke-width="2.4"/>
<polygon points="953.59,289.00 959.41,279.00 971.04,279.00 971.04,299.00 959.41,299.00" fill="#31a354" stroke="#176b37" stroke-width="2.4"/>
<text x="110" y="346" class="sub">Orange CDS outlines indicate has_signal=FALSE.</text>
</svg>
