<svg xmlns="http://www.w3.org/2000/svg" width="1200" height="307" viewBox="0 0 1200 307">
<style>text{font-family:Arial,sans-serif;fill:#222}.title{font-size:16px;font-weight:bold}.sub{font-size:11px;fill:#555}.meta{font-size:11px}.tick{font-size:10px;fill:#555}</style>
<text x="110" y="20" class="title">CM058179.1_6006418-6008330f</text>
<text x="110" y="37" class="sub">CM058179.1 · 6,006,418–6,008,330 · + strand</text>
<line x1="110.89" y1="52" x2="110.89" y2="297" stroke="#e8e8e8"/>
<line x1="155.18" y1="52" x2="155.18" y2="297" stroke="#cccccc"/>
<text x="155.18" y="47" text-anchor="middle" class="tick">6,006,500</text>
<line x1="199.47" y1="52" x2="199.47" y2="297" stroke="#e8e8e8"/>
<line x1="243.76" y1="52" x2="243.76" y2="297" stroke="#e8e8e8"/>
<line x1="288.05" y1="52" x2="288.05" y2="297" stroke="#e8e8e8"/>
<line x1="332.34" y1="52" x2="332.34" y2="297" stroke="#e8e8e8"/>
<line x1="376.63" y1="52" x2="376.63" y2="297" stroke="#cccccc"/>
<text x="376.63" y="47" text-anchor="middle" class="tick">6,007,000</text>
<line x1="420.92" y1="52" x2="420.92" y2="297" stroke="#e8e8e8"/>
<line x1="465.21" y1="52" x2="465.21" y2="297" stroke="#e8e8e8"/>
<line x1="509.50" y1="52" x2="509.50" y2="297" stroke="#e8e8e8"/>
<line x1="553.79" y1="52" x2="553.79" y2="297" stroke="#e8e8e8"/>
<line x1="598.08" y1="52" x2="598.08" y2="297" stroke="#cccccc"/>
<text x="598.08" y="47" text-anchor="middle" class="tick">6,007,500</text>
<line x1="642.38" y1="52" x2="642.38" y2="297" stroke="#e8e8e8"/>
<line x1="686.67" y1="52" x2="686.67" y2="297" stroke="#e8e8e8"/>
<line x1="730.96" y1="52" x2="730.96" y2="297" stroke="#e8e8e8"/>
<line x1="775.25" y1="52" x2="775.25" y2="297" stroke="#e8e8e8"/>
<line x1="819.54" y1="52" x2="819.54" y2="297" stroke="#cccccc"/>
<text x="819.54" y="47" text-anchor="middle" class="tick">6,008,000</text>
<line x1="863.83" y1="52" x2="863.83" y2="297" stroke="#e8e8e8"/>
<line x1="908.12" y1="52" x2="908.12" y2="297" stroke="#e8e8e8"/>
<line x1="952.41" y1="52" x2="952.41" y2="297" stroke="#e8e8e8"/>
<text x="102" y="100" text-anchor="end" class="meta">gene</text>
<text x="983" y="100" class="meta">1,913 bp</text>
<polygon points="118.86,90.00 952.14,90.00 966.14,96.00 952.14,102.00 118.86,102.00" fill="#303030" stroke="#303030" stroke-width="1"/>
<text x="102" y="153" text-anchor="end" class="meta">IRN_005737</text>
<text x="983" y="153" class="meta">1,380 bp · 460 aa · accept · signal</text>
<line x1="166.69" y1="148.00" x2="197.25" y2="148.00" stroke="#86b297" stroke-width="1"/>
<line x1="245.97" y1="148.00" x2="285.39" y2="148.00" stroke="#86b297" stroke-width="1"/>
<line x1="323.04" y1="148.00" x2="346.51" y2="148.00" stroke="#86b297" stroke-width="1"/>
<line x1="416.94" y1="148.00" x2="446.17" y2="148.00" stroke="#86b297" stroke-width="1"/>
<line x1="514.38" y1="148.00" x2="541.39" y2="148.00" stroke="#86b297" stroke-width="1"/>
<line x1="637.95" y1="148.00" x2="666.74" y2="148.00" stroke="#86b297" stroke-width="1"/>
<line x1="722.54" y1="148.00" x2="753.99" y2="148.00" stroke="#86b297" stroke-width="1"/>
<line x1="821.31" y1="148.00" x2="847.44" y2="148.00" stroke="#86b297" stroke-width="1"/>
<polygon points="118.86,138.00 152.69,138.00 166.69,148.00 152.69,158.00 118.86,158.00" fill="#bde2c8" stroke="#86b297" stroke-width="1"/>
<polygon points="197.25,138.00 231.97,138.00 245.97,148.00 231.97,158.00 197.25,158.00" fill="#bde2c8" stroke="#86b297" stroke-width="1"/>
<polygon points="285.39,138.00 310.49,138.00 323.04,148.00 310.49,158.00 285.39,158.00" fill="#bde2c8" stroke="#86b297" stroke-width="1"/>
<polygon points="346.51,138.00 402.94,138.00 416.94,148.00 402.94,158.00 346.51,158.00" fill="#bde2c8" stroke="#86b297" stroke-width="1"/>
<polygon points="446.17,138.00 500.38,138.00 514.38,148.00 500.38,158.00 446.17,158.00" fill="#bde2c8" stroke="#86b297" stroke-width="1"/>
<polygon points="541.39,138.00 623.95,138.00 637.95,148.00 623.95,158.00 541.39,158.00" fill="#bde2c8" stroke="#86b297" stroke-width="1"/>
<polygon points="666.74,138.00 708.54,138.00 722.54,148.00 708.54,158.00 666.74,158.00" fill="#bde2c8" stroke="#86b297" stroke-width="1"/>
<polygon points="753.99,138.00 807.31,138.00 821.31,148.00 807.31,158.00 753.99,158.00" fill="#bde2c8" stroke="#86b297" stroke-width="1"/>
<polygon points="847.44,138.00 952.14,138.00 966.14,148.00 952.14,158.00 847.44,158.00" fill="#bde2c8" stroke="#86b297" stroke-width="1"/>
<text x="102" y="200" text-anchor="end" class="meta">IRN_018728 CURRENT</text>
<text x="983" y="200" class="meta">1,380 bp · 460 aa · accept · signal</text>
<line x1="166.69" y1="195.00" x2="197.25" y2="195.00" stroke="#176b37" stroke-width="2.4"/>
<line x1="245.97" y1="195.00" x2="285.39" y2="195.00" stroke="#176b37" stroke-width="2.4"/>
<line x1="323.04" y1="195.00" x2="346.51" y2="195.00" stroke="#176b37" stroke-width="2.4"/>
<line x1="416.94" y1="195.00" x2="446.17" y2="195.00" stroke="#176b37" stroke-width="2.4"/>
<line x1="514.38" y1="195.00" x2="541.39" y2="195.00" stroke="#176b37" stroke-width="2.4"/>
<line x1="637.95" y1="195.00" x2="666.74" y2="195.00" stroke="#176b37" stroke-width="2.4"/>
<line x1="722.54" y1="195.00" x2="753.99" y2="195.00" stroke="#176b37" stroke-width="2.4"/>
<line x1="821.31" y1="195.00" x2="847.44" y2="195.00" stroke="#176b37" stroke-width="2.4"/>
<polygon points="118.86,185.00 152.69,185.00 166.69,195.00 152.69,205.00 118.86,205.00" fill="#31a354" stroke="#176b37" stroke-width="2.4"/>
<polygon points="197.25,185.00 231.97,185.00 245.97,195.00 231.97,205.00 197.25,205.00" fill="#31a354" stroke="#176b37" stroke-width="2.4"/>
<polygon points="285.39,185.00 310.49,185.00 323.04,195.00 310.49,205.00 285.39,205.00" fill="#31a354" stroke="#176b37" stroke-width="2.4"/>
<polygon points="346.51,185.00 402.94,185.00 416.94,195.00 402.94,205.00 346.51,205.00" fill="#31a354" stroke="#176b37" stroke-width="2.4"/>
<polygon points="446.17,185.00 500.38,185.00 514.38,195.00 500.38,205.00 446.17,205.00" fill="#31a354" stroke="#176b37" stroke-width="2.4"/>
<polygon points="541.39,185.00 623.95,185.00 637.95,195.00 623.95,205.00 541.39,205.00" fill="#31a354" stroke="#176b37" stroke-width="2.4"/>
<polygon points="666.74,185.00 708.54,185.00 722.54,195.00 708.54,205.00 666.74,205.00" fill="#31a354" stroke="#176b37" stroke-width="2.4"/>
<polygon points="753.99,185.00 807.31,185.00 821.31,195.00 807.31,205.00 753.99,205.00" fill="#31a354" stroke="#176b37" stroke-width="2.4"/>
<polygon points="847.44,185.00 952.14,185.00 966.14,195.00 952.14,205.00 847.44,205.00" fill="#31a354" stroke="#176b37" stroke-width="2.4"/>
<text x="102" y="247" text-anchor="end" class="meta">IRN_045047</text>
<text x="983" y="247" class="meta">1,380 bp · 460 aa · accept · signal</text>
<line x1="166.69" y1="242.00" x2="197.25" y2="242.00" stroke="#86b297" stroke-width="1"/>
<line x1="245.97" y1="242.00" x2="285.39" y2="242.00" stroke="#86b297" stroke-width="1"/>
<line x1="323.04" y1="242.00" x2="346.51" y2="242.00" stroke="#86b297" stroke-width="1"/>
<line x1="416.94" y1="242.00" x2="446.17" y2="242.00" stroke="#86b297" stroke-width="1"/>
<line x1="514.38" y1="242.00" x2="541.39" y2="242.00" stroke="#86b297" stroke-width="1"/>
<line x1="637.95" y1="242.00" x2="666.74" y2="242.00" stroke="#86b297" stroke-width="1"/>
<line x1="722.54" y1="242.00" x2="753.99" y2="242.00" stroke="#86b297" stroke-width="1"/>
<line x1="821.31" y1="242.00" x2="847.44" y2="242.00" stroke="#86b297" stroke-width="1"/>
<polygon points="118.86,232.00 152.69,232.00 166.69,242.00 152.69,252.00 118.86,252.00" fill="#bde2c8" stroke="#86b297" stroke-width="1"/>
<polygon points="197.25,232.00 231.97,232.00 245.97,242.00 231.97,252.00 197.25,252.00" fill="#bde2c8" stroke="#86b297" stroke-width="1"/>
<polygon points="285.39,232.00 310.49,232.00 323.04,242.00 310.49,252.00 285.39,252.00" fill="#bde2c8" stroke="#86b297" stroke-width="1"/>
<polygon points="346.51,232.00 402.94,232.00 416.94,242.00 402.94,252.00 346.51,252.00" fill="#bde2c8" stroke="#86b297" stroke-width="1"/>
<polygon points="446.17,232.00 500.38,232.00 514.38,242.00 500.38,252.00 446.17,252.00" fill="#bde2c8" stroke="#86b297" stroke-width="1"/>
<polygon points="541.39,232.00 623.95,232.00 637.95,242.00 623.95,252.00 541.39,252.00" fill="#bde2c8" stroke="#86b297" stroke-width="1"/>
<polygon points="666.74,232.00 708.54,232.00 722.54,242.00 708.54,252.00 666.74,252.00" fill="#bde2c8" stroke="#86b297" stroke-width="1"/>
<polygon points="753.99,232.00 807.31,232.00 821.31,242.00 807.31,252.00 753.99,252.00" fill="#bde2c8" stroke="#86b297" stroke-width="1"/>
<polygon points="847.44,232.00 952.14,232.00 966.14,242.00 952.14,252.00 847.44,252.00" fill="#bde2c8" stroke="#86b297" stroke-width="1"/>
<text x="110" y="299" class="sub">Orange CDS outlines indicate has_signal=FALSE.</text>
</svg>
